<mxfile host="app.diagrams.net" modified="2023-02-07T01:43:45.741Z" agent="5.0 (Windows NT 10.0; Win64; x64) AppleWebKit/537.36 (KHTML, like Gecko) Chrome/109.0.0.0 Safari/537.36 Edg/109.0.1518.78" etag="tVHq4cm4bZf8hTpsNugf" version="20.8.16" type="github">
  <diagram name="第 1 页" id="2rcPHkJZIyb0WF4OHlbM">
    <mxGraphModel dx="1434" dy="796" grid="1" gridSize="10" guides="1" tooltips="1" connect="1" arrows="1" fold="1" page="1" pageScale="1" pageWidth="827" pageHeight="1169" math="0" shadow="0">
      <root>
        <mxCell id="0" />
        <mxCell id="1" parent="0" />
        <mxCell id="V3QT0Z4RZKV1k2BMbgVx-1" value="" style="shape=table;startSize=0;container=1;collapsible=0;childLayout=tableLayout;fontSize=16;" parent="1" vertex="1">
          <mxGeometry x="70" y="9" width="273" height="1151" as="geometry" />
        </mxCell>
        <mxCell id="V3QT0Z4RZKV1k2BMbgVx-2" value="" style="shape=tableRow;horizontal=0;startSize=0;swimlaneHead=0;swimlaneBody=0;strokeColor=inherit;top=0;left=0;bottom=0;right=0;collapsible=0;dropTarget=0;fillColor=none;points=[[0,0.5],[1,0.5]];portConstraint=eastwest;fontSize=16;" parent="V3QT0Z4RZKV1k2BMbgVx-1" vertex="1">
          <mxGeometry width="273" height="20" as="geometry" />
        </mxCell>
        <mxCell id="V3QT0Z4RZKV1k2BMbgVx-3" value="&lt;font style=&quot;font-size: 14px;&quot;&gt;故障原语&lt;/font&gt;" style="shape=partialRectangle;html=1;whiteSpace=wrap;connectable=0;strokeColor=inherit;overflow=hidden;fillColor=none;top=0;left=0;bottom=0;right=0;pointerEvents=1;fontSize=16;" parent="V3QT0Z4RZKV1k2BMbgVx-2" vertex="1">
          <mxGeometry width="90" height="20" as="geometry">
            <mxRectangle width="90" height="20" as="alternateBounds" />
          </mxGeometry>
        </mxCell>
        <mxCell id="V3QT0Z4RZKV1k2BMbgVx-4" value="&lt;font style=&quot;font-size: 13px;&quot;&gt;March C+&lt;/font&gt;" style="shape=partialRectangle;html=1;whiteSpace=wrap;connectable=0;strokeColor=inherit;overflow=hidden;fillColor=none;top=0;left=0;bottom=0;right=0;pointerEvents=1;fontSize=16;" parent="V3QT0Z4RZKV1k2BMbgVx-2" vertex="1">
          <mxGeometry x="90" width="60" height="20" as="geometry">
            <mxRectangle width="60" height="20" as="alternateBounds" />
          </mxGeometry>
        </mxCell>
        <mxCell id="V3QT0Z4RZKV1k2BMbgVx-5" value="&lt;font style=&quot;font-size: 13px;&quot;&gt;March LR&lt;/font&gt;" style="shape=partialRectangle;html=1;whiteSpace=wrap;connectable=0;strokeColor=inherit;overflow=hidden;fillColor=none;top=0;left=0;bottom=0;right=0;pointerEvents=1;fontSize=16;" parent="V3QT0Z4RZKV1k2BMbgVx-2" vertex="1">
          <mxGeometry x="150" width="60" height="20" as="geometry">
            <mxRectangle width="60" height="20" as="alternateBounds" />
          </mxGeometry>
        </mxCell>
        <mxCell id="V3QT0Z4RZKV1k2BMbgVx-14" value="&lt;font style=&quot;font-size: 13px;&quot;&gt;March SR&lt;/font&gt;" style="shape=partialRectangle;html=1;whiteSpace=wrap;connectable=0;strokeColor=inherit;overflow=hidden;fillColor=none;top=0;left=0;bottom=0;right=0;pointerEvents=1;fontSize=16;" parent="V3QT0Z4RZKV1k2BMbgVx-2" vertex="1">
          <mxGeometry x="210" width="63" height="20" as="geometry">
            <mxRectangle width="63" height="20" as="alternateBounds" />
          </mxGeometry>
        </mxCell>
        <mxCell id="V3QT0Z4RZKV1k2BMbgVx-6" value="" style="shape=tableRow;horizontal=0;startSize=0;swimlaneHead=0;swimlaneBody=0;strokeColor=inherit;top=0;left=0;bottom=0;right=0;collapsible=0;dropTarget=0;fillColor=none;points=[[0,0.5],[1,0.5]];portConstraint=eastwest;fontSize=16;" parent="V3QT0Z4RZKV1k2BMbgVx-1" vertex="1">
          <mxGeometry y="20" width="273" height="24" as="geometry" />
        </mxCell>
        <mxCell id="V3QT0Z4RZKV1k2BMbgVx-7" value="&lt;font style=&quot;font-size: 14px;&quot;&gt;SF&amp;lt;0/1/-&amp;gt;&lt;/font&gt;" style="shape=partialRectangle;html=1;whiteSpace=wrap;connectable=0;strokeColor=inherit;overflow=hidden;fillColor=none;top=0;left=0;bottom=0;right=0;pointerEvents=1;fontSize=16;" parent="V3QT0Z4RZKV1k2BMbgVx-6" vertex="1">
          <mxGeometry width="90" height="24" as="geometry">
            <mxRectangle width="90" height="24" as="alternateBounds" />
          </mxGeometry>
        </mxCell>
        <mxCell id="V3QT0Z4RZKV1k2BMbgVx-8" value="" style="shape=partialRectangle;html=1;whiteSpace=wrap;connectable=0;strokeColor=#005700;overflow=hidden;fillColor=#008a00;top=0;left=0;bottom=0;right=0;pointerEvents=1;fontSize=16;fontColor=#ffffff;" parent="V3QT0Z4RZKV1k2BMbgVx-6" vertex="1">
          <mxGeometry x="90" width="60" height="24" as="geometry">
            <mxRectangle width="60" height="24" as="alternateBounds" />
          </mxGeometry>
        </mxCell>
        <mxCell id="V3QT0Z4RZKV1k2BMbgVx-9" value="" style="shape=partialRectangle;html=1;whiteSpace=wrap;connectable=0;strokeColor=inherit;overflow=hidden;fillColor=none;top=0;left=0;bottom=0;right=0;pointerEvents=1;fontSize=16;" parent="V3QT0Z4RZKV1k2BMbgVx-6" vertex="1">
          <mxGeometry x="150" width="60" height="24" as="geometry">
            <mxRectangle width="60" height="24" as="alternateBounds" />
          </mxGeometry>
        </mxCell>
        <mxCell id="V3QT0Z4RZKV1k2BMbgVx-15" style="shape=partialRectangle;html=1;whiteSpace=wrap;connectable=0;strokeColor=inherit;overflow=hidden;fillColor=none;top=0;left=0;bottom=0;right=0;pointerEvents=1;fontSize=16;" parent="V3QT0Z4RZKV1k2BMbgVx-6" vertex="1">
          <mxGeometry x="210" width="63" height="24" as="geometry">
            <mxRectangle width="63" height="24" as="alternateBounds" />
          </mxGeometry>
        </mxCell>
        <mxCell id="V3QT0Z4RZKV1k2BMbgVx-10" value="" style="shape=tableRow;horizontal=0;startSize=0;swimlaneHead=0;swimlaneBody=0;strokeColor=inherit;top=0;left=0;bottom=0;right=0;collapsible=0;dropTarget=0;fillColor=none;points=[[0,0.5],[1,0.5]];portConstraint=eastwest;fontSize=16;" parent="V3QT0Z4RZKV1k2BMbgVx-1" vertex="1">
          <mxGeometry y="44" width="273" height="23" as="geometry" />
        </mxCell>
        <mxCell id="V3QT0Z4RZKV1k2BMbgVx-11" value="&lt;font style=&quot;font-size: 14px;&quot;&gt;SF&amp;lt;1/0/-&amp;gt;&lt;/font&gt;" style="shape=partialRectangle;html=1;whiteSpace=wrap;connectable=0;strokeColor=inherit;overflow=hidden;fillColor=none;top=0;left=0;bottom=0;right=0;pointerEvents=1;fontSize=16;" parent="V3QT0Z4RZKV1k2BMbgVx-10" vertex="1">
          <mxGeometry width="90" height="23" as="geometry">
            <mxRectangle width="90" height="23" as="alternateBounds" />
          </mxGeometry>
        </mxCell>
        <mxCell id="V3QT0Z4RZKV1k2BMbgVx-12" value="" style="shape=partialRectangle;html=1;whiteSpace=wrap;connectable=0;strokeColor=inherit;overflow=hidden;fillColor=none;top=0;left=0;bottom=0;right=0;pointerEvents=1;fontSize=16;" parent="V3QT0Z4RZKV1k2BMbgVx-10" vertex="1">
          <mxGeometry x="90" width="60" height="23" as="geometry">
            <mxRectangle width="60" height="23" as="alternateBounds" />
          </mxGeometry>
        </mxCell>
        <mxCell id="V3QT0Z4RZKV1k2BMbgVx-13" value="" style="shape=partialRectangle;html=1;whiteSpace=wrap;connectable=0;strokeColor=inherit;overflow=hidden;fillColor=none;top=0;left=0;bottom=0;right=0;pointerEvents=1;fontSize=16;" parent="V3QT0Z4RZKV1k2BMbgVx-10" vertex="1">
          <mxGeometry x="150" width="60" height="23" as="geometry">
            <mxRectangle width="60" height="23" as="alternateBounds" />
          </mxGeometry>
        </mxCell>
        <mxCell id="V3QT0Z4RZKV1k2BMbgVx-16" style="shape=partialRectangle;html=1;whiteSpace=wrap;connectable=0;strokeColor=inherit;overflow=hidden;fillColor=none;top=0;left=0;bottom=0;right=0;pointerEvents=1;fontSize=16;" parent="V3QT0Z4RZKV1k2BMbgVx-10" vertex="1">
          <mxGeometry x="210" width="63" height="23" as="geometry">
            <mxRectangle width="63" height="23" as="alternateBounds" />
          </mxGeometry>
        </mxCell>
        <mxCell id="V3QT0Z4RZKV1k2BMbgVx-17" style="shape=tableRow;horizontal=0;startSize=0;swimlaneHead=0;swimlaneBody=0;strokeColor=inherit;top=0;left=0;bottom=0;right=0;collapsible=0;dropTarget=0;fillColor=none;points=[[0,0.5],[1,0.5]];portConstraint=eastwest;fontSize=16;" parent="V3QT0Z4RZKV1k2BMbgVx-1" vertex="1">
          <mxGeometry y="67" width="273" height="23" as="geometry" />
        </mxCell>
        <mxCell id="V3QT0Z4RZKV1k2BMbgVx-18" value="&lt;div style=&quot;&quot;&gt;&lt;span style=&quot;font-size: 13px;&quot;&gt;TF&amp;lt;1w0/1/-&amp;gt;&lt;/span&gt;&lt;br&gt;&lt;/div&gt;" style="shape=partialRectangle;html=1;whiteSpace=wrap;connectable=0;strokeColor=inherit;overflow=hidden;fillColor=none;top=0;left=0;bottom=0;right=0;pointerEvents=1;fontSize=16;align=center;" parent="V3QT0Z4RZKV1k2BMbgVx-17" vertex="1">
          <mxGeometry width="90" height="23" as="geometry">
            <mxRectangle width="90" height="23" as="alternateBounds" />
          </mxGeometry>
        </mxCell>
        <mxCell id="V3QT0Z4RZKV1k2BMbgVx-19" style="shape=partialRectangle;html=1;whiteSpace=wrap;connectable=0;strokeColor=inherit;overflow=hidden;fillColor=none;top=0;left=0;bottom=0;right=0;pointerEvents=1;fontSize=16;" parent="V3QT0Z4RZKV1k2BMbgVx-17" vertex="1">
          <mxGeometry x="90" width="60" height="23" as="geometry">
            <mxRectangle width="60" height="23" as="alternateBounds" />
          </mxGeometry>
        </mxCell>
        <mxCell id="V3QT0Z4RZKV1k2BMbgVx-20" style="shape=partialRectangle;html=1;whiteSpace=wrap;connectable=0;strokeColor=inherit;overflow=hidden;fillColor=none;top=0;left=0;bottom=0;right=0;pointerEvents=1;fontSize=16;" parent="V3QT0Z4RZKV1k2BMbgVx-17" vertex="1">
          <mxGeometry x="150" width="60" height="23" as="geometry">
            <mxRectangle width="60" height="23" as="alternateBounds" />
          </mxGeometry>
        </mxCell>
        <mxCell id="V3QT0Z4RZKV1k2BMbgVx-21" style="shape=partialRectangle;html=1;whiteSpace=wrap;connectable=0;strokeColor=inherit;overflow=hidden;fillColor=none;top=0;left=0;bottom=0;right=0;pointerEvents=1;fontSize=16;" parent="V3QT0Z4RZKV1k2BMbgVx-17" vertex="1">
          <mxGeometry x="210" width="63" height="23" as="geometry">
            <mxRectangle width="63" height="23" as="alternateBounds" />
          </mxGeometry>
        </mxCell>
        <mxCell id="V3QT0Z4RZKV1k2BMbgVx-22" style="shape=tableRow;horizontal=0;startSize=0;swimlaneHead=0;swimlaneBody=0;strokeColor=inherit;top=0;left=0;bottom=0;right=0;collapsible=0;dropTarget=0;fillColor=none;points=[[0,0.5],[1,0.5]];portConstraint=eastwest;fontSize=16;" parent="V3QT0Z4RZKV1k2BMbgVx-1" vertex="1">
          <mxGeometry y="90" width="273" height="23" as="geometry" />
        </mxCell>
        <mxCell id="V3QT0Z4RZKV1k2BMbgVx-23" value="&lt;font style=&quot;font-size: 13px;&quot;&gt;TF&amp;lt;0w1/0/-&amp;gt;&lt;/font&gt;" style="shape=partialRectangle;html=1;whiteSpace=wrap;connectable=0;strokeColor=inherit;overflow=hidden;fillColor=none;top=0;left=0;bottom=0;right=0;pointerEvents=1;fontSize=16;" parent="V3QT0Z4RZKV1k2BMbgVx-22" vertex="1">
          <mxGeometry width="90" height="23" as="geometry">
            <mxRectangle width="90" height="23" as="alternateBounds" />
          </mxGeometry>
        </mxCell>
        <mxCell id="V3QT0Z4RZKV1k2BMbgVx-24" style="shape=partialRectangle;html=1;whiteSpace=wrap;connectable=0;strokeColor=inherit;overflow=hidden;fillColor=none;top=0;left=0;bottom=0;right=0;pointerEvents=1;fontSize=16;" parent="V3QT0Z4RZKV1k2BMbgVx-22" vertex="1">
          <mxGeometry x="90" width="60" height="23" as="geometry">
            <mxRectangle width="60" height="23" as="alternateBounds" />
          </mxGeometry>
        </mxCell>
        <mxCell id="V3QT0Z4RZKV1k2BMbgVx-25" style="shape=partialRectangle;html=1;whiteSpace=wrap;connectable=0;strokeColor=inherit;overflow=hidden;fillColor=none;top=0;left=0;bottom=0;right=0;pointerEvents=1;fontSize=16;" parent="V3QT0Z4RZKV1k2BMbgVx-22" vertex="1">
          <mxGeometry x="150" width="60" height="23" as="geometry">
            <mxRectangle width="60" height="23" as="alternateBounds" />
          </mxGeometry>
        </mxCell>
        <mxCell id="V3QT0Z4RZKV1k2BMbgVx-26" style="shape=partialRectangle;html=1;whiteSpace=wrap;connectable=0;strokeColor=inherit;overflow=hidden;fillColor=none;top=0;left=0;bottom=0;right=0;pointerEvents=1;fontSize=16;" parent="V3QT0Z4RZKV1k2BMbgVx-22" vertex="1">
          <mxGeometry x="210" width="63" height="23" as="geometry">
            <mxRectangle width="63" height="23" as="alternateBounds" />
          </mxGeometry>
        </mxCell>
        <mxCell id="V3QT0Z4RZKV1k2BMbgVx-27" style="shape=tableRow;horizontal=0;startSize=0;swimlaneHead=0;swimlaneBody=0;strokeColor=inherit;top=0;left=0;bottom=0;right=0;collapsible=0;dropTarget=0;fillColor=none;points=[[0,0.5],[1,0.5]];portConstraint=eastwest;fontSize=16;" parent="V3QT0Z4RZKV1k2BMbgVx-1" vertex="1">
          <mxGeometry y="113" width="273" height="23" as="geometry" />
        </mxCell>
        <mxCell id="V3QT0Z4RZKV1k2BMbgVx-28" value="&lt;font style=&quot;font-size: 13px;&quot;&gt;WDF&amp;lt;0w0/1/-&amp;gt;&lt;/font&gt;" style="shape=partialRectangle;html=1;whiteSpace=wrap;connectable=0;strokeColor=inherit;overflow=hidden;fillColor=none;top=0;left=0;bottom=0;right=0;pointerEvents=1;fontSize=16;" parent="V3QT0Z4RZKV1k2BMbgVx-27" vertex="1">
          <mxGeometry width="90" height="23" as="geometry">
            <mxRectangle width="90" height="23" as="alternateBounds" />
          </mxGeometry>
        </mxCell>
        <mxCell id="V3QT0Z4RZKV1k2BMbgVx-29" style="shape=partialRectangle;html=1;whiteSpace=wrap;connectable=0;strokeColor=inherit;overflow=hidden;fillColor=none;top=0;left=0;bottom=0;right=0;pointerEvents=1;fontSize=16;" parent="V3QT0Z4RZKV1k2BMbgVx-27" vertex="1">
          <mxGeometry x="90" width="60" height="23" as="geometry">
            <mxRectangle width="60" height="23" as="alternateBounds" />
          </mxGeometry>
        </mxCell>
        <mxCell id="V3QT0Z4RZKV1k2BMbgVx-30" style="shape=partialRectangle;html=1;whiteSpace=wrap;connectable=0;strokeColor=inherit;overflow=hidden;fillColor=none;top=0;left=0;bottom=0;right=0;pointerEvents=1;fontSize=16;" parent="V3QT0Z4RZKV1k2BMbgVx-27" vertex="1">
          <mxGeometry x="150" width="60" height="23" as="geometry">
            <mxRectangle width="60" height="23" as="alternateBounds" />
          </mxGeometry>
        </mxCell>
        <mxCell id="V3QT0Z4RZKV1k2BMbgVx-31" style="shape=partialRectangle;html=1;whiteSpace=wrap;connectable=0;strokeColor=inherit;overflow=hidden;fillColor=none;top=0;left=0;bottom=0;right=0;pointerEvents=1;fontSize=16;" parent="V3QT0Z4RZKV1k2BMbgVx-27" vertex="1">
          <mxGeometry x="210" width="63" height="23" as="geometry">
            <mxRectangle width="63" height="23" as="alternateBounds" />
          </mxGeometry>
        </mxCell>
        <mxCell id="V3QT0Z4RZKV1k2BMbgVx-32" style="shape=tableRow;horizontal=0;startSize=0;swimlaneHead=0;swimlaneBody=0;strokeColor=inherit;top=0;left=0;bottom=0;right=0;collapsible=0;dropTarget=0;fillColor=none;points=[[0,0.5],[1,0.5]];portConstraint=eastwest;fontSize=16;" parent="V3QT0Z4RZKV1k2BMbgVx-1" vertex="1">
          <mxGeometry y="136" width="273" height="23" as="geometry" />
        </mxCell>
        <mxCell id="V3QT0Z4RZKV1k2BMbgVx-33" value="&lt;font style=&quot;font-size: 13px;&quot;&gt;WDF&amp;lt;1w1/0/-&amp;gt;&lt;/font&gt;" style="shape=partialRectangle;html=1;whiteSpace=wrap;connectable=0;strokeColor=inherit;overflow=hidden;fillColor=none;top=0;left=0;bottom=0;right=0;pointerEvents=1;fontSize=16;" parent="V3QT0Z4RZKV1k2BMbgVx-32" vertex="1">
          <mxGeometry width="90" height="23" as="geometry">
            <mxRectangle width="90" height="23" as="alternateBounds" />
          </mxGeometry>
        </mxCell>
        <mxCell id="V3QT0Z4RZKV1k2BMbgVx-34" style="shape=partialRectangle;html=1;whiteSpace=wrap;connectable=0;strokeColor=inherit;overflow=hidden;fillColor=none;top=0;left=0;bottom=0;right=0;pointerEvents=1;fontSize=16;" parent="V3QT0Z4RZKV1k2BMbgVx-32" vertex="1">
          <mxGeometry x="90" width="60" height="23" as="geometry">
            <mxRectangle width="60" height="23" as="alternateBounds" />
          </mxGeometry>
        </mxCell>
        <mxCell id="V3QT0Z4RZKV1k2BMbgVx-35" style="shape=partialRectangle;html=1;whiteSpace=wrap;connectable=0;strokeColor=inherit;overflow=hidden;fillColor=none;top=0;left=0;bottom=0;right=0;pointerEvents=1;fontSize=16;" parent="V3QT0Z4RZKV1k2BMbgVx-32" vertex="1">
          <mxGeometry x="150" width="60" height="23" as="geometry">
            <mxRectangle width="60" height="23" as="alternateBounds" />
          </mxGeometry>
        </mxCell>
        <mxCell id="V3QT0Z4RZKV1k2BMbgVx-36" style="shape=partialRectangle;html=1;whiteSpace=wrap;connectable=0;strokeColor=inherit;overflow=hidden;fillColor=none;top=0;left=0;bottom=0;right=0;pointerEvents=1;fontSize=16;" parent="V3QT0Z4RZKV1k2BMbgVx-32" vertex="1">
          <mxGeometry x="210" width="63" height="23" as="geometry">
            <mxRectangle width="63" height="23" as="alternateBounds" />
          </mxGeometry>
        </mxCell>
        <mxCell id="V3QT0Z4RZKV1k2BMbgVx-37" style="shape=tableRow;horizontal=0;startSize=0;swimlaneHead=0;swimlaneBody=0;strokeColor=inherit;top=0;left=0;bottom=0;right=0;collapsible=0;dropTarget=0;fillColor=none;points=[[0,0.5],[1,0.5]];portConstraint=eastwest;fontSize=16;" parent="V3QT0Z4RZKV1k2BMbgVx-1" vertex="1">
          <mxGeometry y="159" width="273" height="23" as="geometry" />
        </mxCell>
        <mxCell id="V3QT0Z4RZKV1k2BMbgVx-38" value="&lt;font style=&quot;font-size: 13px;&quot;&gt;RDF&amp;lt;r0/1/1&amp;gt;&lt;/font&gt;" style="shape=partialRectangle;html=1;whiteSpace=wrap;connectable=0;strokeColor=inherit;overflow=hidden;fillColor=none;top=0;left=0;bottom=0;right=0;pointerEvents=1;fontSize=16;" parent="V3QT0Z4RZKV1k2BMbgVx-37" vertex="1">
          <mxGeometry width="90" height="23" as="geometry">
            <mxRectangle width="90" height="23" as="alternateBounds" />
          </mxGeometry>
        </mxCell>
        <mxCell id="V3QT0Z4RZKV1k2BMbgVx-39" style="shape=partialRectangle;html=1;whiteSpace=wrap;connectable=0;strokeColor=inherit;overflow=hidden;fillColor=none;top=0;left=0;bottom=0;right=0;pointerEvents=1;fontSize=16;" parent="V3QT0Z4RZKV1k2BMbgVx-37" vertex="1">
          <mxGeometry x="90" width="60" height="23" as="geometry">
            <mxRectangle width="60" height="23" as="alternateBounds" />
          </mxGeometry>
        </mxCell>
        <mxCell id="V3QT0Z4RZKV1k2BMbgVx-40" style="shape=partialRectangle;html=1;whiteSpace=wrap;connectable=0;strokeColor=inherit;overflow=hidden;fillColor=none;top=0;left=0;bottom=0;right=0;pointerEvents=1;fontSize=16;" parent="V3QT0Z4RZKV1k2BMbgVx-37" vertex="1">
          <mxGeometry x="150" width="60" height="23" as="geometry">
            <mxRectangle width="60" height="23" as="alternateBounds" />
          </mxGeometry>
        </mxCell>
        <mxCell id="V3QT0Z4RZKV1k2BMbgVx-41" style="shape=partialRectangle;html=1;whiteSpace=wrap;connectable=0;strokeColor=inherit;overflow=hidden;fillColor=none;top=0;left=0;bottom=0;right=0;pointerEvents=1;fontSize=16;" parent="V3QT0Z4RZKV1k2BMbgVx-37" vertex="1">
          <mxGeometry x="210" width="63" height="23" as="geometry">
            <mxRectangle width="63" height="23" as="alternateBounds" />
          </mxGeometry>
        </mxCell>
        <mxCell id="V3QT0Z4RZKV1k2BMbgVx-42" style="shape=tableRow;horizontal=0;startSize=0;swimlaneHead=0;swimlaneBody=0;strokeColor=inherit;top=0;left=0;bottom=0;right=0;collapsible=0;dropTarget=0;fillColor=none;points=[[0,0.5],[1,0.5]];portConstraint=eastwest;fontSize=16;" parent="V3QT0Z4RZKV1k2BMbgVx-1" vertex="1">
          <mxGeometry y="182" width="273" height="23" as="geometry" />
        </mxCell>
        <mxCell id="V3QT0Z4RZKV1k2BMbgVx-43" value="&lt;font style=&quot;font-size: 13px;&quot;&gt;RDF&amp;lt;r1/0/0&lt;/font&gt;&amp;gt;" style="shape=partialRectangle;html=1;whiteSpace=wrap;connectable=0;strokeColor=inherit;overflow=hidden;fillColor=none;top=0;left=0;bottom=0;right=0;pointerEvents=1;fontSize=16;align=center;" parent="V3QT0Z4RZKV1k2BMbgVx-42" vertex="1">
          <mxGeometry width="90" height="23" as="geometry">
            <mxRectangle width="90" height="23" as="alternateBounds" />
          </mxGeometry>
        </mxCell>
        <mxCell id="V3QT0Z4RZKV1k2BMbgVx-44" style="shape=partialRectangle;html=1;whiteSpace=wrap;connectable=0;strokeColor=inherit;overflow=hidden;fillColor=none;top=0;left=0;bottom=0;right=0;pointerEvents=1;fontSize=16;" parent="V3QT0Z4RZKV1k2BMbgVx-42" vertex="1">
          <mxGeometry x="90" width="60" height="23" as="geometry">
            <mxRectangle width="60" height="23" as="alternateBounds" />
          </mxGeometry>
        </mxCell>
        <mxCell id="V3QT0Z4RZKV1k2BMbgVx-45" style="shape=partialRectangle;html=1;whiteSpace=wrap;connectable=0;strokeColor=inherit;overflow=hidden;fillColor=none;top=0;left=0;bottom=0;right=0;pointerEvents=1;fontSize=16;" parent="V3QT0Z4RZKV1k2BMbgVx-42" vertex="1">
          <mxGeometry x="150" width="60" height="23" as="geometry">
            <mxRectangle width="60" height="23" as="alternateBounds" />
          </mxGeometry>
        </mxCell>
        <mxCell id="V3QT0Z4RZKV1k2BMbgVx-46" style="shape=partialRectangle;html=1;whiteSpace=wrap;connectable=0;strokeColor=inherit;overflow=hidden;fillColor=none;top=0;left=0;bottom=0;right=0;pointerEvents=1;fontSize=16;" parent="V3QT0Z4RZKV1k2BMbgVx-42" vertex="1">
          <mxGeometry x="210" width="63" height="23" as="geometry">
            <mxRectangle width="63" height="23" as="alternateBounds" />
          </mxGeometry>
        </mxCell>
        <mxCell id="V3QT0Z4RZKV1k2BMbgVx-47" style="shape=tableRow;horizontal=0;startSize=0;swimlaneHead=0;swimlaneBody=0;strokeColor=inherit;top=0;left=0;bottom=0;right=0;collapsible=0;dropTarget=0;fillColor=none;points=[[0,0.5],[1,0.5]];portConstraint=eastwest;fontSize=16;" parent="V3QT0Z4RZKV1k2BMbgVx-1" vertex="1">
          <mxGeometry y="205" width="273" height="25" as="geometry" />
        </mxCell>
        <mxCell id="V3QT0Z4RZKV1k2BMbgVx-48" value="&lt;font style=&quot;font-size: 13px;&quot;&gt;DRDF&amp;lt;r0/1/0&amp;gt;&lt;/font&gt;" style="shape=partialRectangle;html=1;whiteSpace=wrap;connectable=0;strokeColor=inherit;overflow=hidden;fillColor=none;top=0;left=0;bottom=0;right=0;pointerEvents=1;fontSize=16;" parent="V3QT0Z4RZKV1k2BMbgVx-47" vertex="1">
          <mxGeometry width="90" height="25" as="geometry">
            <mxRectangle width="90" height="25" as="alternateBounds" />
          </mxGeometry>
        </mxCell>
        <mxCell id="V3QT0Z4RZKV1k2BMbgVx-49" style="shape=partialRectangle;html=1;whiteSpace=wrap;connectable=0;strokeColor=inherit;overflow=hidden;fillColor=none;top=0;left=0;bottom=0;right=0;pointerEvents=1;fontSize=16;" parent="V3QT0Z4RZKV1k2BMbgVx-47" vertex="1">
          <mxGeometry x="90" width="60" height="25" as="geometry">
            <mxRectangle width="60" height="25" as="alternateBounds" />
          </mxGeometry>
        </mxCell>
        <mxCell id="V3QT0Z4RZKV1k2BMbgVx-50" style="shape=partialRectangle;html=1;whiteSpace=wrap;connectable=0;strokeColor=inherit;overflow=hidden;fillColor=none;top=0;left=0;bottom=0;right=0;pointerEvents=1;fontSize=16;" parent="V3QT0Z4RZKV1k2BMbgVx-47" vertex="1">
          <mxGeometry x="150" width="60" height="25" as="geometry">
            <mxRectangle width="60" height="25" as="alternateBounds" />
          </mxGeometry>
        </mxCell>
        <mxCell id="V3QT0Z4RZKV1k2BMbgVx-51" style="shape=partialRectangle;html=1;whiteSpace=wrap;connectable=0;strokeColor=inherit;overflow=hidden;fillColor=none;top=0;left=0;bottom=0;right=0;pointerEvents=1;fontSize=16;" parent="V3QT0Z4RZKV1k2BMbgVx-47" vertex="1">
          <mxGeometry x="210" width="63" height="25" as="geometry">
            <mxRectangle width="63" height="25" as="alternateBounds" />
          </mxGeometry>
        </mxCell>
        <mxCell id="V3QT0Z4RZKV1k2BMbgVx-52" style="shape=tableRow;horizontal=0;startSize=0;swimlaneHead=0;swimlaneBody=0;strokeColor=inherit;top=0;left=0;bottom=0;right=0;collapsible=0;dropTarget=0;fillColor=none;points=[[0,0.5],[1,0.5]];portConstraint=eastwest;fontSize=16;" parent="V3QT0Z4RZKV1k2BMbgVx-1" vertex="1">
          <mxGeometry y="230" width="273" height="24" as="geometry" />
        </mxCell>
        <mxCell id="V3QT0Z4RZKV1k2BMbgVx-53" value="&lt;font style=&quot;font-size: 13px;&quot;&gt;DRDF&amp;lt;r1/0/1&amp;gt;&lt;/font&gt;" style="shape=partialRectangle;html=1;whiteSpace=wrap;connectable=0;strokeColor=inherit;overflow=hidden;fillColor=none;top=0;left=0;bottom=0;right=0;pointerEvents=1;fontSize=16;" parent="V3QT0Z4RZKV1k2BMbgVx-52" vertex="1">
          <mxGeometry width="90" height="24" as="geometry">
            <mxRectangle width="90" height="24" as="alternateBounds" />
          </mxGeometry>
        </mxCell>
        <mxCell id="V3QT0Z4RZKV1k2BMbgVx-54" style="shape=partialRectangle;html=1;whiteSpace=wrap;connectable=0;strokeColor=inherit;overflow=hidden;fillColor=none;top=0;left=0;bottom=0;right=0;pointerEvents=1;fontSize=16;" parent="V3QT0Z4RZKV1k2BMbgVx-52" vertex="1">
          <mxGeometry x="90" width="60" height="24" as="geometry">
            <mxRectangle width="60" height="24" as="alternateBounds" />
          </mxGeometry>
        </mxCell>
        <mxCell id="V3QT0Z4RZKV1k2BMbgVx-55" style="shape=partialRectangle;html=1;whiteSpace=wrap;connectable=0;strokeColor=inherit;overflow=hidden;fillColor=none;top=0;left=0;bottom=0;right=0;pointerEvents=1;fontSize=16;" parent="V3QT0Z4RZKV1k2BMbgVx-52" vertex="1">
          <mxGeometry x="150" width="60" height="24" as="geometry">
            <mxRectangle width="60" height="24" as="alternateBounds" />
          </mxGeometry>
        </mxCell>
        <mxCell id="V3QT0Z4RZKV1k2BMbgVx-56" style="shape=partialRectangle;html=1;whiteSpace=wrap;connectable=0;strokeColor=inherit;overflow=hidden;fillColor=none;top=0;left=0;bottom=0;right=0;pointerEvents=1;fontSize=16;" parent="V3QT0Z4RZKV1k2BMbgVx-52" vertex="1">
          <mxGeometry x="210" width="63" height="24" as="geometry">
            <mxRectangle width="63" height="24" as="alternateBounds" />
          </mxGeometry>
        </mxCell>
        <mxCell id="V3QT0Z4RZKV1k2BMbgVx-57" style="shape=tableRow;horizontal=0;startSize=0;swimlaneHead=0;swimlaneBody=0;strokeColor=inherit;top=0;left=0;bottom=0;right=0;collapsible=0;dropTarget=0;fillColor=none;points=[[0,0.5],[1,0.5]];portConstraint=eastwest;fontSize=16;" parent="V3QT0Z4RZKV1k2BMbgVx-1" vertex="1">
          <mxGeometry y="254" width="273" height="23" as="geometry" />
        </mxCell>
        <mxCell id="V3QT0Z4RZKV1k2BMbgVx-58" value="&lt;font style=&quot;font-size: 13px;&quot;&gt;CFst&amp;lt;0;0/1/-&amp;gt;↑&lt;/font&gt;" style="shape=partialRectangle;html=1;whiteSpace=wrap;connectable=0;strokeColor=inherit;overflow=hidden;fillColor=none;top=0;left=0;bottom=0;right=0;pointerEvents=1;fontSize=16;" parent="V3QT0Z4RZKV1k2BMbgVx-57" vertex="1">
          <mxGeometry width="90" height="23" as="geometry">
            <mxRectangle width="90" height="23" as="alternateBounds" />
          </mxGeometry>
        </mxCell>
        <mxCell id="V3QT0Z4RZKV1k2BMbgVx-59" style="shape=partialRectangle;html=1;whiteSpace=wrap;connectable=0;strokeColor=inherit;overflow=hidden;fillColor=none;top=0;left=0;bottom=0;right=0;pointerEvents=1;fontSize=16;" parent="V3QT0Z4RZKV1k2BMbgVx-57" vertex="1">
          <mxGeometry x="90" width="60" height="23" as="geometry">
            <mxRectangle width="60" height="23" as="alternateBounds" />
          </mxGeometry>
        </mxCell>
        <mxCell id="V3QT0Z4RZKV1k2BMbgVx-60" style="shape=partialRectangle;html=1;whiteSpace=wrap;connectable=0;strokeColor=inherit;overflow=hidden;fillColor=none;top=0;left=0;bottom=0;right=0;pointerEvents=1;fontSize=16;" parent="V3QT0Z4RZKV1k2BMbgVx-57" vertex="1">
          <mxGeometry x="150" width="60" height="23" as="geometry">
            <mxRectangle width="60" height="23" as="alternateBounds" />
          </mxGeometry>
        </mxCell>
        <mxCell id="V3QT0Z4RZKV1k2BMbgVx-61" style="shape=partialRectangle;html=1;whiteSpace=wrap;connectable=0;strokeColor=inherit;overflow=hidden;fillColor=none;top=0;left=0;bottom=0;right=0;pointerEvents=1;fontSize=16;" parent="V3QT0Z4RZKV1k2BMbgVx-57" vertex="1">
          <mxGeometry x="210" width="63" height="23" as="geometry">
            <mxRectangle width="63" height="23" as="alternateBounds" />
          </mxGeometry>
        </mxCell>
        <mxCell id="V3QT0Z4RZKV1k2BMbgVx-62" style="shape=tableRow;horizontal=0;startSize=0;swimlaneHead=0;swimlaneBody=0;strokeColor=inherit;top=0;left=0;bottom=0;right=0;collapsible=0;dropTarget=0;fillColor=none;points=[[0,0.5],[1,0.5]];portConstraint=eastwest;fontSize=16;" parent="V3QT0Z4RZKV1k2BMbgVx-1" vertex="1">
          <mxGeometry y="277" width="273" height="23" as="geometry" />
        </mxCell>
        <mxCell id="V3QT0Z4RZKV1k2BMbgVx-63" value="&lt;font style=&quot;font-size: 13px;&quot;&gt;C&lt;/font&gt;&lt;font style=&quot;font-size: 13px;&quot;&gt;Fst&amp;lt;0;1/0/-&amp;gt;↑&lt;/font&gt;" style="shape=partialRectangle;html=1;whiteSpace=wrap;connectable=0;strokeColor=inherit;overflow=hidden;fillColor=none;top=0;left=0;bottom=0;right=0;pointerEvents=1;fontSize=16;" parent="V3QT0Z4RZKV1k2BMbgVx-62" vertex="1">
          <mxGeometry width="90" height="23" as="geometry">
            <mxRectangle width="90" height="23" as="alternateBounds" />
          </mxGeometry>
        </mxCell>
        <mxCell id="V3QT0Z4RZKV1k2BMbgVx-64" style="shape=partialRectangle;html=1;whiteSpace=wrap;connectable=0;strokeColor=inherit;overflow=hidden;fillColor=none;top=0;left=0;bottom=0;right=0;pointerEvents=1;fontSize=16;" parent="V3QT0Z4RZKV1k2BMbgVx-62" vertex="1">
          <mxGeometry x="90" width="60" height="23" as="geometry">
            <mxRectangle width="60" height="23" as="alternateBounds" />
          </mxGeometry>
        </mxCell>
        <mxCell id="V3QT0Z4RZKV1k2BMbgVx-65" style="shape=partialRectangle;html=1;whiteSpace=wrap;connectable=0;strokeColor=inherit;overflow=hidden;fillColor=none;top=0;left=0;bottom=0;right=0;pointerEvents=1;fontSize=16;" parent="V3QT0Z4RZKV1k2BMbgVx-62" vertex="1">
          <mxGeometry x="150" width="60" height="23" as="geometry">
            <mxRectangle width="60" height="23" as="alternateBounds" />
          </mxGeometry>
        </mxCell>
        <mxCell id="V3QT0Z4RZKV1k2BMbgVx-66" style="shape=partialRectangle;html=1;whiteSpace=wrap;connectable=0;strokeColor=inherit;overflow=hidden;fillColor=none;top=0;left=0;bottom=0;right=0;pointerEvents=1;fontSize=16;" parent="V3QT0Z4RZKV1k2BMbgVx-62" vertex="1">
          <mxGeometry x="210" width="63" height="23" as="geometry">
            <mxRectangle width="63" height="23" as="alternateBounds" />
          </mxGeometry>
        </mxCell>
        <mxCell id="V3QT0Z4RZKV1k2BMbgVx-67" style="shape=tableRow;horizontal=0;startSize=0;swimlaneHead=0;swimlaneBody=0;strokeColor=inherit;top=0;left=0;bottom=0;right=0;collapsible=0;dropTarget=0;fillColor=none;points=[[0,0.5],[1,0.5]];portConstraint=eastwest;fontSize=16;" parent="V3QT0Z4RZKV1k2BMbgVx-1" vertex="1">
          <mxGeometry y="300" width="273" height="23" as="geometry" />
        </mxCell>
        <mxCell id="V3QT0Z4RZKV1k2BMbgVx-68" value="&lt;font style=&quot;font-size: 13px;&quot;&gt;CFst&amp;lt;1;0/1/-&amp;gt;↑&lt;/font&gt;" style="shape=partialRectangle;html=1;whiteSpace=wrap;connectable=0;strokeColor=inherit;overflow=hidden;fillColor=none;top=0;left=0;bottom=0;right=0;pointerEvents=1;fontSize=16;" parent="V3QT0Z4RZKV1k2BMbgVx-67" vertex="1">
          <mxGeometry width="90" height="23" as="geometry">
            <mxRectangle width="90" height="23" as="alternateBounds" />
          </mxGeometry>
        </mxCell>
        <mxCell id="V3QT0Z4RZKV1k2BMbgVx-69" style="shape=partialRectangle;html=1;whiteSpace=wrap;connectable=0;strokeColor=inherit;overflow=hidden;fillColor=none;top=0;left=0;bottom=0;right=0;pointerEvents=1;fontSize=16;" parent="V3QT0Z4RZKV1k2BMbgVx-67" vertex="1">
          <mxGeometry x="90" width="60" height="23" as="geometry">
            <mxRectangle width="60" height="23" as="alternateBounds" />
          </mxGeometry>
        </mxCell>
        <mxCell id="V3QT0Z4RZKV1k2BMbgVx-70" style="shape=partialRectangle;html=1;whiteSpace=wrap;connectable=0;strokeColor=inherit;overflow=hidden;fillColor=none;top=0;left=0;bottom=0;right=0;pointerEvents=1;fontSize=16;" parent="V3QT0Z4RZKV1k2BMbgVx-67" vertex="1">
          <mxGeometry x="150" width="60" height="23" as="geometry">
            <mxRectangle width="60" height="23" as="alternateBounds" />
          </mxGeometry>
        </mxCell>
        <mxCell id="V3QT0Z4RZKV1k2BMbgVx-71" style="shape=partialRectangle;html=1;whiteSpace=wrap;connectable=0;strokeColor=inherit;overflow=hidden;fillColor=none;top=0;left=0;bottom=0;right=0;pointerEvents=1;fontSize=16;" parent="V3QT0Z4RZKV1k2BMbgVx-67" vertex="1">
          <mxGeometry x="210" width="63" height="23" as="geometry">
            <mxRectangle width="63" height="23" as="alternateBounds" />
          </mxGeometry>
        </mxCell>
        <mxCell id="V3QT0Z4RZKV1k2BMbgVx-72" style="shape=tableRow;horizontal=0;startSize=0;swimlaneHead=0;swimlaneBody=0;strokeColor=inherit;top=0;left=0;bottom=0;right=0;collapsible=0;dropTarget=0;fillColor=none;points=[[0,0.5],[1,0.5]];portConstraint=eastwest;fontSize=16;" parent="V3QT0Z4RZKV1k2BMbgVx-1" vertex="1">
          <mxGeometry y="323" width="273" height="23" as="geometry" />
        </mxCell>
        <mxCell id="V3QT0Z4RZKV1k2BMbgVx-73" value="&lt;font style=&quot;font-size: 13px;&quot;&gt;CFst&amp;lt;1;1/0/-&amp;gt;&lt;span style=&quot;border-color: var(--border-color); background-color: initial; font-family: &amp;quot;Times New Roman&amp;quot;;&quot;&gt;↑&lt;/span&gt;&lt;/font&gt;" style="shape=partialRectangle;html=1;whiteSpace=wrap;connectable=0;strokeColor=inherit;overflow=hidden;fillColor=none;top=0;left=0;bottom=0;right=0;pointerEvents=1;fontSize=16;align=center;" parent="V3QT0Z4RZKV1k2BMbgVx-72" vertex="1">
          <mxGeometry width="90" height="23" as="geometry">
            <mxRectangle width="90" height="23" as="alternateBounds" />
          </mxGeometry>
        </mxCell>
        <mxCell id="V3QT0Z4RZKV1k2BMbgVx-74" style="shape=partialRectangle;html=1;whiteSpace=wrap;connectable=0;strokeColor=inherit;overflow=hidden;fillColor=none;top=0;left=0;bottom=0;right=0;pointerEvents=1;fontSize=16;" parent="V3QT0Z4RZKV1k2BMbgVx-72" vertex="1">
          <mxGeometry x="90" width="60" height="23" as="geometry">
            <mxRectangle width="60" height="23" as="alternateBounds" />
          </mxGeometry>
        </mxCell>
        <mxCell id="V3QT0Z4RZKV1k2BMbgVx-75" style="shape=partialRectangle;html=1;whiteSpace=wrap;connectable=0;strokeColor=inherit;overflow=hidden;fillColor=none;top=0;left=0;bottom=0;right=0;pointerEvents=1;fontSize=16;" parent="V3QT0Z4RZKV1k2BMbgVx-72" vertex="1">
          <mxGeometry x="150" width="60" height="23" as="geometry">
            <mxRectangle width="60" height="23" as="alternateBounds" />
          </mxGeometry>
        </mxCell>
        <mxCell id="V3QT0Z4RZKV1k2BMbgVx-76" style="shape=partialRectangle;html=1;whiteSpace=wrap;connectable=0;strokeColor=inherit;overflow=hidden;fillColor=none;top=0;left=0;bottom=0;right=0;pointerEvents=1;fontSize=16;" parent="V3QT0Z4RZKV1k2BMbgVx-72" vertex="1">
          <mxGeometry x="210" width="63" height="23" as="geometry">
            <mxRectangle width="63" height="23" as="alternateBounds" />
          </mxGeometry>
        </mxCell>
        <mxCell id="V3QT0Z4RZKV1k2BMbgVx-77" style="shape=tableRow;horizontal=0;startSize=0;swimlaneHead=0;swimlaneBody=0;strokeColor=inherit;top=0;left=0;bottom=0;right=0;collapsible=0;dropTarget=0;fillColor=none;points=[[0,0.5],[1,0.5]];portConstraint=eastwest;fontSize=16;" parent="V3QT0Z4RZKV1k2BMbgVx-1" vertex="1">
          <mxGeometry y="346" width="273" height="23" as="geometry" />
        </mxCell>
        <mxCell id="V3QT0Z4RZKV1k2BMbgVx-78" value="&lt;font style=&quot;font-size: 13px;&quot;&gt;CFst&amp;lt;0;0/1/-&amp;gt;↓&lt;/font&gt;" style="shape=partialRectangle;html=1;whiteSpace=wrap;connectable=0;strokeColor=inherit;overflow=hidden;fillColor=none;top=0;left=0;bottom=0;right=0;pointerEvents=1;fontSize=16;" parent="V3QT0Z4RZKV1k2BMbgVx-77" vertex="1">
          <mxGeometry width="90" height="23" as="geometry">
            <mxRectangle width="90" height="23" as="alternateBounds" />
          </mxGeometry>
        </mxCell>
        <mxCell id="V3QT0Z4RZKV1k2BMbgVx-79" style="shape=partialRectangle;html=1;whiteSpace=wrap;connectable=0;strokeColor=inherit;overflow=hidden;fillColor=none;top=0;left=0;bottom=0;right=0;pointerEvents=1;fontSize=16;" parent="V3QT0Z4RZKV1k2BMbgVx-77" vertex="1">
          <mxGeometry x="90" width="60" height="23" as="geometry">
            <mxRectangle width="60" height="23" as="alternateBounds" />
          </mxGeometry>
        </mxCell>
        <mxCell id="V3QT0Z4RZKV1k2BMbgVx-80" style="shape=partialRectangle;html=1;whiteSpace=wrap;connectable=0;strokeColor=inherit;overflow=hidden;fillColor=none;top=0;left=0;bottom=0;right=0;pointerEvents=1;fontSize=16;" parent="V3QT0Z4RZKV1k2BMbgVx-77" vertex="1">
          <mxGeometry x="150" width="60" height="23" as="geometry">
            <mxRectangle width="60" height="23" as="alternateBounds" />
          </mxGeometry>
        </mxCell>
        <mxCell id="V3QT0Z4RZKV1k2BMbgVx-81" style="shape=partialRectangle;html=1;whiteSpace=wrap;connectable=0;strokeColor=inherit;overflow=hidden;fillColor=none;top=0;left=0;bottom=0;right=0;pointerEvents=1;fontSize=16;" parent="V3QT0Z4RZKV1k2BMbgVx-77" vertex="1">
          <mxGeometry x="210" width="63" height="23" as="geometry">
            <mxRectangle width="63" height="23" as="alternateBounds" />
          </mxGeometry>
        </mxCell>
        <mxCell id="V3QT0Z4RZKV1k2BMbgVx-82" style="shape=tableRow;horizontal=0;startSize=0;swimlaneHead=0;swimlaneBody=0;strokeColor=inherit;top=0;left=0;bottom=0;right=0;collapsible=0;dropTarget=0;fillColor=none;points=[[0,0.5],[1,0.5]];portConstraint=eastwest;fontSize=16;" parent="V3QT0Z4RZKV1k2BMbgVx-1" vertex="1">
          <mxGeometry y="369" width="273" height="23" as="geometry" />
        </mxCell>
        <mxCell id="V3QT0Z4RZKV1k2BMbgVx-83" value="&lt;font style=&quot;border-color: var(--border-color); font-size: 13px;&quot;&gt;C&lt;/font&gt;&lt;font style=&quot;border-color: var(--border-color); font-size: 13px;&quot;&gt;Fst&amp;lt;0;1/0/-&amp;gt;&lt;/font&gt;↓" style="shape=partialRectangle;html=1;whiteSpace=wrap;connectable=0;strokeColor=inherit;overflow=hidden;fillColor=none;top=0;left=0;bottom=0;right=0;pointerEvents=1;fontSize=16;" parent="V3QT0Z4RZKV1k2BMbgVx-82" vertex="1">
          <mxGeometry width="90" height="23" as="geometry">
            <mxRectangle width="90" height="23" as="alternateBounds" />
          </mxGeometry>
        </mxCell>
        <mxCell id="V3QT0Z4RZKV1k2BMbgVx-84" style="shape=partialRectangle;html=1;whiteSpace=wrap;connectable=0;strokeColor=inherit;overflow=hidden;fillColor=none;top=0;left=0;bottom=0;right=0;pointerEvents=1;fontSize=16;" parent="V3QT0Z4RZKV1k2BMbgVx-82" vertex="1">
          <mxGeometry x="90" width="60" height="23" as="geometry">
            <mxRectangle width="60" height="23" as="alternateBounds" />
          </mxGeometry>
        </mxCell>
        <mxCell id="V3QT0Z4RZKV1k2BMbgVx-85" style="shape=partialRectangle;html=1;whiteSpace=wrap;connectable=0;strokeColor=inherit;overflow=hidden;fillColor=none;top=0;left=0;bottom=0;right=0;pointerEvents=1;fontSize=16;" parent="V3QT0Z4RZKV1k2BMbgVx-82" vertex="1">
          <mxGeometry x="150" width="60" height="23" as="geometry">
            <mxRectangle width="60" height="23" as="alternateBounds" />
          </mxGeometry>
        </mxCell>
        <mxCell id="V3QT0Z4RZKV1k2BMbgVx-86" style="shape=partialRectangle;html=1;whiteSpace=wrap;connectable=0;strokeColor=inherit;overflow=hidden;fillColor=none;top=0;left=0;bottom=0;right=0;pointerEvents=1;fontSize=16;" parent="V3QT0Z4RZKV1k2BMbgVx-82" vertex="1">
          <mxGeometry x="210" width="63" height="23" as="geometry">
            <mxRectangle width="63" height="23" as="alternateBounds" />
          </mxGeometry>
        </mxCell>
        <mxCell id="V3QT0Z4RZKV1k2BMbgVx-87" style="shape=tableRow;horizontal=0;startSize=0;swimlaneHead=0;swimlaneBody=0;strokeColor=inherit;top=0;left=0;bottom=0;right=0;collapsible=0;dropTarget=0;fillColor=none;points=[[0,0.5],[1,0.5]];portConstraint=eastwest;fontSize=16;" parent="V3QT0Z4RZKV1k2BMbgVx-1" vertex="1">
          <mxGeometry y="392" width="273" height="23" as="geometry" />
        </mxCell>
        <mxCell id="V3QT0Z4RZKV1k2BMbgVx-88" value="&lt;font style=&quot;font-size: 13px;&quot;&gt;CFst&amp;lt;1;0/1/-&amp;gt;↓&lt;/font&gt;" style="shape=partialRectangle;html=1;whiteSpace=wrap;connectable=0;strokeColor=inherit;overflow=hidden;fillColor=none;top=0;left=0;bottom=0;right=0;pointerEvents=1;fontSize=16;" parent="V3QT0Z4RZKV1k2BMbgVx-87" vertex="1">
          <mxGeometry width="90" height="23" as="geometry">
            <mxRectangle width="90" height="23" as="alternateBounds" />
          </mxGeometry>
        </mxCell>
        <mxCell id="V3QT0Z4RZKV1k2BMbgVx-89" style="shape=partialRectangle;html=1;whiteSpace=wrap;connectable=0;strokeColor=inherit;overflow=hidden;fillColor=none;top=0;left=0;bottom=0;right=0;pointerEvents=1;fontSize=16;" parent="V3QT0Z4RZKV1k2BMbgVx-87" vertex="1">
          <mxGeometry x="90" width="60" height="23" as="geometry">
            <mxRectangle width="60" height="23" as="alternateBounds" />
          </mxGeometry>
        </mxCell>
        <mxCell id="V3QT0Z4RZKV1k2BMbgVx-90" style="shape=partialRectangle;html=1;whiteSpace=wrap;connectable=0;strokeColor=inherit;overflow=hidden;fillColor=none;top=0;left=0;bottom=0;right=0;pointerEvents=1;fontSize=16;" parent="V3QT0Z4RZKV1k2BMbgVx-87" vertex="1">
          <mxGeometry x="150" width="60" height="23" as="geometry">
            <mxRectangle width="60" height="23" as="alternateBounds" />
          </mxGeometry>
        </mxCell>
        <mxCell id="V3QT0Z4RZKV1k2BMbgVx-91" style="shape=partialRectangle;html=1;whiteSpace=wrap;connectable=0;strokeColor=inherit;overflow=hidden;fillColor=none;top=0;left=0;bottom=0;right=0;pointerEvents=1;fontSize=16;" parent="V3QT0Z4RZKV1k2BMbgVx-87" vertex="1">
          <mxGeometry x="210" width="63" height="23" as="geometry">
            <mxRectangle width="63" height="23" as="alternateBounds" />
          </mxGeometry>
        </mxCell>
        <mxCell id="V3QT0Z4RZKV1k2BMbgVx-92" style="shape=tableRow;horizontal=0;startSize=0;swimlaneHead=0;swimlaneBody=0;strokeColor=inherit;top=0;left=0;bottom=0;right=0;collapsible=0;dropTarget=0;fillColor=none;points=[[0,0.5],[1,0.5]];portConstraint=eastwest;fontSize=16;" parent="V3QT0Z4RZKV1k2BMbgVx-1" vertex="1">
          <mxGeometry y="415" width="273" height="23" as="geometry" />
        </mxCell>
        <mxCell id="V3QT0Z4RZKV1k2BMbgVx-93" value="&lt;font style=&quot;font-size: 13px;&quot;&gt;CFst&amp;lt;1;1/0/-&amp;gt;↓&lt;/font&gt;" style="shape=partialRectangle;html=1;whiteSpace=wrap;connectable=0;strokeColor=inherit;overflow=hidden;fillColor=none;top=0;left=0;bottom=0;right=0;pointerEvents=1;fontSize=16;" parent="V3QT0Z4RZKV1k2BMbgVx-92" vertex="1">
          <mxGeometry width="90" height="23" as="geometry">
            <mxRectangle width="90" height="23" as="alternateBounds" />
          </mxGeometry>
        </mxCell>
        <mxCell id="V3QT0Z4RZKV1k2BMbgVx-94" style="shape=partialRectangle;html=1;whiteSpace=wrap;connectable=0;strokeColor=inherit;overflow=hidden;fillColor=none;top=0;left=0;bottom=0;right=0;pointerEvents=1;fontSize=16;" parent="V3QT0Z4RZKV1k2BMbgVx-92" vertex="1">
          <mxGeometry x="90" width="60" height="23" as="geometry">
            <mxRectangle width="60" height="23" as="alternateBounds" />
          </mxGeometry>
        </mxCell>
        <mxCell id="V3QT0Z4RZKV1k2BMbgVx-95" style="shape=partialRectangle;html=1;whiteSpace=wrap;connectable=0;strokeColor=inherit;overflow=hidden;fillColor=none;top=0;left=0;bottom=0;right=0;pointerEvents=1;fontSize=16;" parent="V3QT0Z4RZKV1k2BMbgVx-92" vertex="1">
          <mxGeometry x="150" width="60" height="23" as="geometry">
            <mxRectangle width="60" height="23" as="alternateBounds" />
          </mxGeometry>
        </mxCell>
        <mxCell id="V3QT0Z4RZKV1k2BMbgVx-96" style="shape=partialRectangle;html=1;whiteSpace=wrap;connectable=0;strokeColor=inherit;overflow=hidden;fillColor=none;top=0;left=0;bottom=0;right=0;pointerEvents=1;fontSize=16;" parent="V3QT0Z4RZKV1k2BMbgVx-92" vertex="1">
          <mxGeometry x="210" width="63" height="23" as="geometry">
            <mxRectangle width="63" height="23" as="alternateBounds" />
          </mxGeometry>
        </mxCell>
        <mxCell id="V3QT0Z4RZKV1k2BMbgVx-97" style="shape=tableRow;horizontal=0;startSize=0;swimlaneHead=0;swimlaneBody=0;strokeColor=inherit;top=0;left=0;bottom=0;right=0;collapsible=0;dropTarget=0;fillColor=none;points=[[0,0.5],[1,0.5]];portConstraint=eastwest;fontSize=16;" parent="V3QT0Z4RZKV1k2BMbgVx-1" vertex="1">
          <mxGeometry y="438" width="273" height="23" as="geometry" />
        </mxCell>
        <mxCell id="V3QT0Z4RZKV1k2BMbgVx-98" style="shape=partialRectangle;html=1;whiteSpace=wrap;connectable=0;strokeColor=inherit;overflow=hidden;fillColor=none;top=0;left=0;bottom=0;right=0;pointerEvents=1;fontSize=16;" parent="V3QT0Z4RZKV1k2BMbgVx-97" vertex="1">
          <mxGeometry width="90" height="23" as="geometry">
            <mxRectangle width="90" height="23" as="alternateBounds" />
          </mxGeometry>
        </mxCell>
        <mxCell id="V3QT0Z4RZKV1k2BMbgVx-99" style="shape=partialRectangle;html=1;whiteSpace=wrap;connectable=0;strokeColor=inherit;overflow=hidden;fillColor=none;top=0;left=0;bottom=0;right=0;pointerEvents=1;fontSize=16;" parent="V3QT0Z4RZKV1k2BMbgVx-97" vertex="1">
          <mxGeometry x="90" width="60" height="23" as="geometry">
            <mxRectangle width="60" height="23" as="alternateBounds" />
          </mxGeometry>
        </mxCell>
        <mxCell id="V3QT0Z4RZKV1k2BMbgVx-100" style="shape=partialRectangle;html=1;whiteSpace=wrap;connectable=0;strokeColor=inherit;overflow=hidden;fillColor=none;top=0;left=0;bottom=0;right=0;pointerEvents=1;fontSize=16;" parent="V3QT0Z4RZKV1k2BMbgVx-97" vertex="1">
          <mxGeometry x="150" width="60" height="23" as="geometry">
            <mxRectangle width="60" height="23" as="alternateBounds" />
          </mxGeometry>
        </mxCell>
        <mxCell id="V3QT0Z4RZKV1k2BMbgVx-101" style="shape=partialRectangle;html=1;whiteSpace=wrap;connectable=0;strokeColor=inherit;overflow=hidden;fillColor=none;top=0;left=0;bottom=0;right=0;pointerEvents=1;fontSize=16;" parent="V3QT0Z4RZKV1k2BMbgVx-97" vertex="1">
          <mxGeometry x="210" width="63" height="23" as="geometry">
            <mxRectangle width="63" height="23" as="alternateBounds" />
          </mxGeometry>
        </mxCell>
        <mxCell id="V3QT0Z4RZKV1k2BMbgVx-102" style="shape=tableRow;horizontal=0;startSize=0;swimlaneHead=0;swimlaneBody=0;strokeColor=inherit;top=0;left=0;bottom=0;right=0;collapsible=0;dropTarget=0;fillColor=none;points=[[0,0.5],[1,0.5]];portConstraint=eastwest;fontSize=16;" parent="V3QT0Z4RZKV1k2BMbgVx-1" vertex="1">
          <mxGeometry y="461" width="273" height="23" as="geometry" />
        </mxCell>
        <mxCell id="V3QT0Z4RZKV1k2BMbgVx-103" style="shape=partialRectangle;html=1;whiteSpace=wrap;connectable=0;strokeColor=inherit;overflow=hidden;fillColor=none;top=0;left=0;bottom=0;right=0;pointerEvents=1;fontSize=16;" parent="V3QT0Z4RZKV1k2BMbgVx-102" vertex="1">
          <mxGeometry width="90" height="23" as="geometry">
            <mxRectangle width="90" height="23" as="alternateBounds" />
          </mxGeometry>
        </mxCell>
        <mxCell id="V3QT0Z4RZKV1k2BMbgVx-104" style="shape=partialRectangle;html=1;whiteSpace=wrap;connectable=0;strokeColor=inherit;overflow=hidden;fillColor=none;top=0;left=0;bottom=0;right=0;pointerEvents=1;fontSize=16;" parent="V3QT0Z4RZKV1k2BMbgVx-102" vertex="1">
          <mxGeometry x="90" width="60" height="23" as="geometry">
            <mxRectangle width="60" height="23" as="alternateBounds" />
          </mxGeometry>
        </mxCell>
        <mxCell id="V3QT0Z4RZKV1k2BMbgVx-105" style="shape=partialRectangle;html=1;whiteSpace=wrap;connectable=0;strokeColor=inherit;overflow=hidden;fillColor=none;top=0;left=0;bottom=0;right=0;pointerEvents=1;fontSize=16;" parent="V3QT0Z4RZKV1k2BMbgVx-102" vertex="1">
          <mxGeometry x="150" width="60" height="23" as="geometry">
            <mxRectangle width="60" height="23" as="alternateBounds" />
          </mxGeometry>
        </mxCell>
        <mxCell id="V3QT0Z4RZKV1k2BMbgVx-106" style="shape=partialRectangle;html=1;whiteSpace=wrap;connectable=0;strokeColor=inherit;overflow=hidden;fillColor=none;top=0;left=0;bottom=0;right=0;pointerEvents=1;fontSize=16;" parent="V3QT0Z4RZKV1k2BMbgVx-102" vertex="1">
          <mxGeometry x="210" width="63" height="23" as="geometry">
            <mxRectangle width="63" height="23" as="alternateBounds" />
          </mxGeometry>
        </mxCell>
        <mxCell id="2tVpoDA7U7rSNusbg8pE-1" style="shape=tableRow;horizontal=0;startSize=0;swimlaneHead=0;swimlaneBody=0;strokeColor=inherit;top=0;left=0;bottom=0;right=0;collapsible=0;dropTarget=0;fillColor=none;points=[[0,0.5],[1,0.5]];portConstraint=eastwest;fontSize=16;" vertex="1" parent="V3QT0Z4RZKV1k2BMbgVx-1">
          <mxGeometry y="484" width="273" height="23" as="geometry" />
        </mxCell>
        <mxCell id="2tVpoDA7U7rSNusbg8pE-2" style="shape=partialRectangle;html=1;whiteSpace=wrap;connectable=0;strokeColor=inherit;overflow=hidden;fillColor=none;top=0;left=0;bottom=0;right=0;pointerEvents=1;fontSize=16;" vertex="1" parent="2tVpoDA7U7rSNusbg8pE-1">
          <mxGeometry width="90" height="23" as="geometry">
            <mxRectangle width="90" height="23" as="alternateBounds" />
          </mxGeometry>
        </mxCell>
        <mxCell id="2tVpoDA7U7rSNusbg8pE-3" style="shape=partialRectangle;html=1;whiteSpace=wrap;connectable=0;strokeColor=inherit;overflow=hidden;fillColor=none;top=0;left=0;bottom=0;right=0;pointerEvents=1;fontSize=16;" vertex="1" parent="2tVpoDA7U7rSNusbg8pE-1">
          <mxGeometry x="90" width="60" height="23" as="geometry">
            <mxRectangle width="60" height="23" as="alternateBounds" />
          </mxGeometry>
        </mxCell>
        <mxCell id="2tVpoDA7U7rSNusbg8pE-4" style="shape=partialRectangle;html=1;whiteSpace=wrap;connectable=0;strokeColor=inherit;overflow=hidden;fillColor=none;top=0;left=0;bottom=0;right=0;pointerEvents=1;fontSize=16;" vertex="1" parent="2tVpoDA7U7rSNusbg8pE-1">
          <mxGeometry x="150" width="60" height="23" as="geometry">
            <mxRectangle width="60" height="23" as="alternateBounds" />
          </mxGeometry>
        </mxCell>
        <mxCell id="2tVpoDA7U7rSNusbg8pE-5" style="shape=partialRectangle;html=1;whiteSpace=wrap;connectable=0;strokeColor=inherit;overflow=hidden;fillColor=none;top=0;left=0;bottom=0;right=0;pointerEvents=1;fontSize=16;" vertex="1" parent="2tVpoDA7U7rSNusbg8pE-1">
          <mxGeometry x="210" width="63" height="23" as="geometry">
            <mxRectangle width="63" height="23" as="alternateBounds" />
          </mxGeometry>
        </mxCell>
        <mxCell id="2tVpoDA7U7rSNusbg8pE-6" style="shape=tableRow;horizontal=0;startSize=0;swimlaneHead=0;swimlaneBody=0;strokeColor=inherit;top=0;left=0;bottom=0;right=0;collapsible=0;dropTarget=0;fillColor=none;points=[[0,0.5],[1,0.5]];portConstraint=eastwest;fontSize=16;" vertex="1" parent="V3QT0Z4RZKV1k2BMbgVx-1">
          <mxGeometry y="507" width="273" height="23" as="geometry" />
        </mxCell>
        <mxCell id="2tVpoDA7U7rSNusbg8pE-7" style="shape=partialRectangle;html=1;whiteSpace=wrap;connectable=0;strokeColor=inherit;overflow=hidden;fillColor=none;top=0;left=0;bottom=0;right=0;pointerEvents=1;fontSize=16;" vertex="1" parent="2tVpoDA7U7rSNusbg8pE-6">
          <mxGeometry width="90" height="23" as="geometry">
            <mxRectangle width="90" height="23" as="alternateBounds" />
          </mxGeometry>
        </mxCell>
        <mxCell id="2tVpoDA7U7rSNusbg8pE-8" style="shape=partialRectangle;html=1;whiteSpace=wrap;connectable=0;strokeColor=inherit;overflow=hidden;fillColor=none;top=0;left=0;bottom=0;right=0;pointerEvents=1;fontSize=16;" vertex="1" parent="2tVpoDA7U7rSNusbg8pE-6">
          <mxGeometry x="90" width="60" height="23" as="geometry">
            <mxRectangle width="60" height="23" as="alternateBounds" />
          </mxGeometry>
        </mxCell>
        <mxCell id="2tVpoDA7U7rSNusbg8pE-9" style="shape=partialRectangle;html=1;whiteSpace=wrap;connectable=0;strokeColor=inherit;overflow=hidden;fillColor=none;top=0;left=0;bottom=0;right=0;pointerEvents=1;fontSize=16;" vertex="1" parent="2tVpoDA7U7rSNusbg8pE-6">
          <mxGeometry x="150" width="60" height="23" as="geometry">
            <mxRectangle width="60" height="23" as="alternateBounds" />
          </mxGeometry>
        </mxCell>
        <mxCell id="2tVpoDA7U7rSNusbg8pE-10" style="shape=partialRectangle;html=1;whiteSpace=wrap;connectable=0;strokeColor=inherit;overflow=hidden;fillColor=none;top=0;left=0;bottom=0;right=0;pointerEvents=1;fontSize=16;" vertex="1" parent="2tVpoDA7U7rSNusbg8pE-6">
          <mxGeometry x="210" width="63" height="23" as="geometry">
            <mxRectangle width="63" height="23" as="alternateBounds" />
          </mxGeometry>
        </mxCell>
        <mxCell id="2tVpoDA7U7rSNusbg8pE-11" style="shape=tableRow;horizontal=0;startSize=0;swimlaneHead=0;swimlaneBody=0;strokeColor=inherit;top=0;left=0;bottom=0;right=0;collapsible=0;dropTarget=0;fillColor=none;points=[[0,0.5],[1,0.5]];portConstraint=eastwest;fontSize=16;" vertex="1" parent="V3QT0Z4RZKV1k2BMbgVx-1">
          <mxGeometry y="530" width="273" height="23" as="geometry" />
        </mxCell>
        <mxCell id="2tVpoDA7U7rSNusbg8pE-12" style="shape=partialRectangle;html=1;whiteSpace=wrap;connectable=0;strokeColor=inherit;overflow=hidden;fillColor=none;top=0;left=0;bottom=0;right=0;pointerEvents=1;fontSize=16;" vertex="1" parent="2tVpoDA7U7rSNusbg8pE-11">
          <mxGeometry width="90" height="23" as="geometry">
            <mxRectangle width="90" height="23" as="alternateBounds" />
          </mxGeometry>
        </mxCell>
        <mxCell id="2tVpoDA7U7rSNusbg8pE-13" style="shape=partialRectangle;html=1;whiteSpace=wrap;connectable=0;strokeColor=inherit;overflow=hidden;fillColor=none;top=0;left=0;bottom=0;right=0;pointerEvents=1;fontSize=16;" vertex="1" parent="2tVpoDA7U7rSNusbg8pE-11">
          <mxGeometry x="90" width="60" height="23" as="geometry">
            <mxRectangle width="60" height="23" as="alternateBounds" />
          </mxGeometry>
        </mxCell>
        <mxCell id="2tVpoDA7U7rSNusbg8pE-14" style="shape=partialRectangle;html=1;whiteSpace=wrap;connectable=0;strokeColor=inherit;overflow=hidden;fillColor=none;top=0;left=0;bottom=0;right=0;pointerEvents=1;fontSize=16;" vertex="1" parent="2tVpoDA7U7rSNusbg8pE-11">
          <mxGeometry x="150" width="60" height="23" as="geometry">
            <mxRectangle width="60" height="23" as="alternateBounds" />
          </mxGeometry>
        </mxCell>
        <mxCell id="2tVpoDA7U7rSNusbg8pE-15" style="shape=partialRectangle;html=1;whiteSpace=wrap;connectable=0;strokeColor=inherit;overflow=hidden;fillColor=none;top=0;left=0;bottom=0;right=0;pointerEvents=1;fontSize=16;" vertex="1" parent="2tVpoDA7U7rSNusbg8pE-11">
          <mxGeometry x="210" width="63" height="23" as="geometry">
            <mxRectangle width="63" height="23" as="alternateBounds" />
          </mxGeometry>
        </mxCell>
        <mxCell id="2tVpoDA7U7rSNusbg8pE-16" style="shape=tableRow;horizontal=0;startSize=0;swimlaneHead=0;swimlaneBody=0;strokeColor=inherit;top=0;left=0;bottom=0;right=0;collapsible=0;dropTarget=0;fillColor=none;points=[[0,0.5],[1,0.5]];portConstraint=eastwest;fontSize=16;" vertex="1" parent="V3QT0Z4RZKV1k2BMbgVx-1">
          <mxGeometry y="553" width="273" height="23" as="geometry" />
        </mxCell>
        <mxCell id="2tVpoDA7U7rSNusbg8pE-17" style="shape=partialRectangle;html=1;whiteSpace=wrap;connectable=0;strokeColor=inherit;overflow=hidden;fillColor=none;top=0;left=0;bottom=0;right=0;pointerEvents=1;fontSize=16;" vertex="1" parent="2tVpoDA7U7rSNusbg8pE-16">
          <mxGeometry width="90" height="23" as="geometry">
            <mxRectangle width="90" height="23" as="alternateBounds" />
          </mxGeometry>
        </mxCell>
        <mxCell id="2tVpoDA7U7rSNusbg8pE-18" style="shape=partialRectangle;html=1;whiteSpace=wrap;connectable=0;strokeColor=inherit;overflow=hidden;fillColor=none;top=0;left=0;bottom=0;right=0;pointerEvents=1;fontSize=16;" vertex="1" parent="2tVpoDA7U7rSNusbg8pE-16">
          <mxGeometry x="90" width="60" height="23" as="geometry">
            <mxRectangle width="60" height="23" as="alternateBounds" />
          </mxGeometry>
        </mxCell>
        <mxCell id="2tVpoDA7U7rSNusbg8pE-19" style="shape=partialRectangle;html=1;whiteSpace=wrap;connectable=0;strokeColor=inherit;overflow=hidden;fillColor=none;top=0;left=0;bottom=0;right=0;pointerEvents=1;fontSize=16;" vertex="1" parent="2tVpoDA7U7rSNusbg8pE-16">
          <mxGeometry x="150" width="60" height="23" as="geometry">
            <mxRectangle width="60" height="23" as="alternateBounds" />
          </mxGeometry>
        </mxCell>
        <mxCell id="2tVpoDA7U7rSNusbg8pE-20" style="shape=partialRectangle;html=1;whiteSpace=wrap;connectable=0;strokeColor=inherit;overflow=hidden;fillColor=none;top=0;left=0;bottom=0;right=0;pointerEvents=1;fontSize=16;" vertex="1" parent="2tVpoDA7U7rSNusbg8pE-16">
          <mxGeometry x="210" width="63" height="23" as="geometry">
            <mxRectangle width="63" height="23" as="alternateBounds" />
          </mxGeometry>
        </mxCell>
        <mxCell id="2tVpoDA7U7rSNusbg8pE-21" style="shape=tableRow;horizontal=0;startSize=0;swimlaneHead=0;swimlaneBody=0;strokeColor=inherit;top=0;left=0;bottom=0;right=0;collapsible=0;dropTarget=0;fillColor=none;points=[[0,0.5],[1,0.5]];portConstraint=eastwest;fontSize=16;" vertex="1" parent="V3QT0Z4RZKV1k2BMbgVx-1">
          <mxGeometry y="576" width="273" height="23" as="geometry" />
        </mxCell>
        <mxCell id="2tVpoDA7U7rSNusbg8pE-22" style="shape=partialRectangle;html=1;whiteSpace=wrap;connectable=0;strokeColor=inherit;overflow=hidden;fillColor=none;top=0;left=0;bottom=0;right=0;pointerEvents=1;fontSize=16;" vertex="1" parent="2tVpoDA7U7rSNusbg8pE-21">
          <mxGeometry width="90" height="23" as="geometry">
            <mxRectangle width="90" height="23" as="alternateBounds" />
          </mxGeometry>
        </mxCell>
        <mxCell id="2tVpoDA7U7rSNusbg8pE-23" style="shape=partialRectangle;html=1;whiteSpace=wrap;connectable=0;strokeColor=inherit;overflow=hidden;fillColor=none;top=0;left=0;bottom=0;right=0;pointerEvents=1;fontSize=16;" vertex="1" parent="2tVpoDA7U7rSNusbg8pE-21">
          <mxGeometry x="90" width="60" height="23" as="geometry">
            <mxRectangle width="60" height="23" as="alternateBounds" />
          </mxGeometry>
        </mxCell>
        <mxCell id="2tVpoDA7U7rSNusbg8pE-24" style="shape=partialRectangle;html=1;whiteSpace=wrap;connectable=0;strokeColor=inherit;overflow=hidden;fillColor=none;top=0;left=0;bottom=0;right=0;pointerEvents=1;fontSize=16;" vertex="1" parent="2tVpoDA7U7rSNusbg8pE-21">
          <mxGeometry x="150" width="60" height="23" as="geometry">
            <mxRectangle width="60" height="23" as="alternateBounds" />
          </mxGeometry>
        </mxCell>
        <mxCell id="2tVpoDA7U7rSNusbg8pE-25" style="shape=partialRectangle;html=1;whiteSpace=wrap;connectable=0;strokeColor=inherit;overflow=hidden;fillColor=none;top=0;left=0;bottom=0;right=0;pointerEvents=1;fontSize=16;" vertex="1" parent="2tVpoDA7U7rSNusbg8pE-21">
          <mxGeometry x="210" width="63" height="23" as="geometry">
            <mxRectangle width="63" height="23" as="alternateBounds" />
          </mxGeometry>
        </mxCell>
        <mxCell id="2tVpoDA7U7rSNusbg8pE-26" style="shape=tableRow;horizontal=0;startSize=0;swimlaneHead=0;swimlaneBody=0;strokeColor=inherit;top=0;left=0;bottom=0;right=0;collapsible=0;dropTarget=0;fillColor=none;points=[[0,0.5],[1,0.5]];portConstraint=eastwest;fontSize=16;" vertex="1" parent="V3QT0Z4RZKV1k2BMbgVx-1">
          <mxGeometry y="599" width="273" height="23" as="geometry" />
        </mxCell>
        <mxCell id="2tVpoDA7U7rSNusbg8pE-27" style="shape=partialRectangle;html=1;whiteSpace=wrap;connectable=0;strokeColor=inherit;overflow=hidden;fillColor=none;top=0;left=0;bottom=0;right=0;pointerEvents=1;fontSize=16;" vertex="1" parent="2tVpoDA7U7rSNusbg8pE-26">
          <mxGeometry width="90" height="23" as="geometry">
            <mxRectangle width="90" height="23" as="alternateBounds" />
          </mxGeometry>
        </mxCell>
        <mxCell id="2tVpoDA7U7rSNusbg8pE-28" style="shape=partialRectangle;html=1;whiteSpace=wrap;connectable=0;strokeColor=inherit;overflow=hidden;fillColor=none;top=0;left=0;bottom=0;right=0;pointerEvents=1;fontSize=16;" vertex="1" parent="2tVpoDA7U7rSNusbg8pE-26">
          <mxGeometry x="90" width="60" height="23" as="geometry">
            <mxRectangle width="60" height="23" as="alternateBounds" />
          </mxGeometry>
        </mxCell>
        <mxCell id="2tVpoDA7U7rSNusbg8pE-29" style="shape=partialRectangle;html=1;whiteSpace=wrap;connectable=0;strokeColor=inherit;overflow=hidden;fillColor=none;top=0;left=0;bottom=0;right=0;pointerEvents=1;fontSize=16;" vertex="1" parent="2tVpoDA7U7rSNusbg8pE-26">
          <mxGeometry x="150" width="60" height="23" as="geometry">
            <mxRectangle width="60" height="23" as="alternateBounds" />
          </mxGeometry>
        </mxCell>
        <mxCell id="2tVpoDA7U7rSNusbg8pE-30" style="shape=partialRectangle;html=1;whiteSpace=wrap;connectable=0;strokeColor=inherit;overflow=hidden;fillColor=none;top=0;left=0;bottom=0;right=0;pointerEvents=1;fontSize=16;" vertex="1" parent="2tVpoDA7U7rSNusbg8pE-26">
          <mxGeometry x="210" width="63" height="23" as="geometry">
            <mxRectangle width="63" height="23" as="alternateBounds" />
          </mxGeometry>
        </mxCell>
        <mxCell id="2tVpoDA7U7rSNusbg8pE-31" style="shape=tableRow;horizontal=0;startSize=0;swimlaneHead=0;swimlaneBody=0;strokeColor=inherit;top=0;left=0;bottom=0;right=0;collapsible=0;dropTarget=0;fillColor=none;points=[[0,0.5],[1,0.5]];portConstraint=eastwest;fontSize=16;" vertex="1" parent="V3QT0Z4RZKV1k2BMbgVx-1">
          <mxGeometry y="622" width="273" height="23" as="geometry" />
        </mxCell>
        <mxCell id="2tVpoDA7U7rSNusbg8pE-32" style="shape=partialRectangle;html=1;whiteSpace=wrap;connectable=0;strokeColor=inherit;overflow=hidden;fillColor=none;top=0;left=0;bottom=0;right=0;pointerEvents=1;fontSize=16;" vertex="1" parent="2tVpoDA7U7rSNusbg8pE-31">
          <mxGeometry width="90" height="23" as="geometry">
            <mxRectangle width="90" height="23" as="alternateBounds" />
          </mxGeometry>
        </mxCell>
        <mxCell id="2tVpoDA7U7rSNusbg8pE-33" style="shape=partialRectangle;html=1;whiteSpace=wrap;connectable=0;strokeColor=inherit;overflow=hidden;fillColor=none;top=0;left=0;bottom=0;right=0;pointerEvents=1;fontSize=16;" vertex="1" parent="2tVpoDA7U7rSNusbg8pE-31">
          <mxGeometry x="90" width="60" height="23" as="geometry">
            <mxRectangle width="60" height="23" as="alternateBounds" />
          </mxGeometry>
        </mxCell>
        <mxCell id="2tVpoDA7U7rSNusbg8pE-34" style="shape=partialRectangle;html=1;whiteSpace=wrap;connectable=0;strokeColor=inherit;overflow=hidden;fillColor=none;top=0;left=0;bottom=0;right=0;pointerEvents=1;fontSize=16;" vertex="1" parent="2tVpoDA7U7rSNusbg8pE-31">
          <mxGeometry x="150" width="60" height="23" as="geometry">
            <mxRectangle width="60" height="23" as="alternateBounds" />
          </mxGeometry>
        </mxCell>
        <mxCell id="2tVpoDA7U7rSNusbg8pE-35" style="shape=partialRectangle;html=1;whiteSpace=wrap;connectable=0;strokeColor=inherit;overflow=hidden;fillColor=none;top=0;left=0;bottom=0;right=0;pointerEvents=1;fontSize=16;" vertex="1" parent="2tVpoDA7U7rSNusbg8pE-31">
          <mxGeometry x="210" width="63" height="23" as="geometry">
            <mxRectangle width="63" height="23" as="alternateBounds" />
          </mxGeometry>
        </mxCell>
        <mxCell id="2tVpoDA7U7rSNusbg8pE-36" style="shape=tableRow;horizontal=0;startSize=0;swimlaneHead=0;swimlaneBody=0;strokeColor=inherit;top=0;left=0;bottom=0;right=0;collapsible=0;dropTarget=0;fillColor=none;points=[[0,0.5],[1,0.5]];portConstraint=eastwest;fontSize=16;" vertex="1" parent="V3QT0Z4RZKV1k2BMbgVx-1">
          <mxGeometry y="645" width="273" height="23" as="geometry" />
        </mxCell>
        <mxCell id="2tVpoDA7U7rSNusbg8pE-37" style="shape=partialRectangle;html=1;whiteSpace=wrap;connectable=0;strokeColor=inherit;overflow=hidden;fillColor=none;top=0;left=0;bottom=0;right=0;pointerEvents=1;fontSize=16;" vertex="1" parent="2tVpoDA7U7rSNusbg8pE-36">
          <mxGeometry width="90" height="23" as="geometry">
            <mxRectangle width="90" height="23" as="alternateBounds" />
          </mxGeometry>
        </mxCell>
        <mxCell id="2tVpoDA7U7rSNusbg8pE-38" style="shape=partialRectangle;html=1;whiteSpace=wrap;connectable=0;strokeColor=inherit;overflow=hidden;fillColor=none;top=0;left=0;bottom=0;right=0;pointerEvents=1;fontSize=16;" vertex="1" parent="2tVpoDA7U7rSNusbg8pE-36">
          <mxGeometry x="90" width="60" height="23" as="geometry">
            <mxRectangle width="60" height="23" as="alternateBounds" />
          </mxGeometry>
        </mxCell>
        <mxCell id="2tVpoDA7U7rSNusbg8pE-39" style="shape=partialRectangle;html=1;whiteSpace=wrap;connectable=0;strokeColor=inherit;overflow=hidden;fillColor=none;top=0;left=0;bottom=0;right=0;pointerEvents=1;fontSize=16;" vertex="1" parent="2tVpoDA7U7rSNusbg8pE-36">
          <mxGeometry x="150" width="60" height="23" as="geometry">
            <mxRectangle width="60" height="23" as="alternateBounds" />
          </mxGeometry>
        </mxCell>
        <mxCell id="2tVpoDA7U7rSNusbg8pE-40" style="shape=partialRectangle;html=1;whiteSpace=wrap;connectable=0;strokeColor=inherit;overflow=hidden;fillColor=none;top=0;left=0;bottom=0;right=0;pointerEvents=1;fontSize=16;" vertex="1" parent="2tVpoDA7U7rSNusbg8pE-36">
          <mxGeometry x="210" width="63" height="23" as="geometry">
            <mxRectangle width="63" height="23" as="alternateBounds" />
          </mxGeometry>
        </mxCell>
        <mxCell id="2tVpoDA7U7rSNusbg8pE-41" style="shape=tableRow;horizontal=0;startSize=0;swimlaneHead=0;swimlaneBody=0;strokeColor=inherit;top=0;left=0;bottom=0;right=0;collapsible=0;dropTarget=0;fillColor=none;points=[[0,0.5],[1,0.5]];portConstraint=eastwest;fontSize=16;" vertex="1" parent="V3QT0Z4RZKV1k2BMbgVx-1">
          <mxGeometry y="668" width="273" height="23" as="geometry" />
        </mxCell>
        <mxCell id="2tVpoDA7U7rSNusbg8pE-42" style="shape=partialRectangle;html=1;whiteSpace=wrap;connectable=0;strokeColor=inherit;overflow=hidden;fillColor=none;top=0;left=0;bottom=0;right=0;pointerEvents=1;fontSize=16;" vertex="1" parent="2tVpoDA7U7rSNusbg8pE-41">
          <mxGeometry width="90" height="23" as="geometry">
            <mxRectangle width="90" height="23" as="alternateBounds" />
          </mxGeometry>
        </mxCell>
        <mxCell id="2tVpoDA7U7rSNusbg8pE-43" style="shape=partialRectangle;html=1;whiteSpace=wrap;connectable=0;strokeColor=inherit;overflow=hidden;fillColor=none;top=0;left=0;bottom=0;right=0;pointerEvents=1;fontSize=16;" vertex="1" parent="2tVpoDA7U7rSNusbg8pE-41">
          <mxGeometry x="90" width="60" height="23" as="geometry">
            <mxRectangle width="60" height="23" as="alternateBounds" />
          </mxGeometry>
        </mxCell>
        <mxCell id="2tVpoDA7U7rSNusbg8pE-44" style="shape=partialRectangle;html=1;whiteSpace=wrap;connectable=0;strokeColor=inherit;overflow=hidden;fillColor=none;top=0;left=0;bottom=0;right=0;pointerEvents=1;fontSize=16;" vertex="1" parent="2tVpoDA7U7rSNusbg8pE-41">
          <mxGeometry x="150" width="60" height="23" as="geometry">
            <mxRectangle width="60" height="23" as="alternateBounds" />
          </mxGeometry>
        </mxCell>
        <mxCell id="2tVpoDA7U7rSNusbg8pE-45" style="shape=partialRectangle;html=1;whiteSpace=wrap;connectable=0;strokeColor=inherit;overflow=hidden;fillColor=none;top=0;left=0;bottom=0;right=0;pointerEvents=1;fontSize=16;" vertex="1" parent="2tVpoDA7U7rSNusbg8pE-41">
          <mxGeometry x="210" width="63" height="23" as="geometry">
            <mxRectangle width="63" height="23" as="alternateBounds" />
          </mxGeometry>
        </mxCell>
        <mxCell id="2tVpoDA7U7rSNusbg8pE-46" style="shape=tableRow;horizontal=0;startSize=0;swimlaneHead=0;swimlaneBody=0;strokeColor=inherit;top=0;left=0;bottom=0;right=0;collapsible=0;dropTarget=0;fillColor=none;points=[[0,0.5],[1,0.5]];portConstraint=eastwest;fontSize=16;" vertex="1" parent="V3QT0Z4RZKV1k2BMbgVx-1">
          <mxGeometry y="691" width="273" height="23" as="geometry" />
        </mxCell>
        <mxCell id="2tVpoDA7U7rSNusbg8pE-47" style="shape=partialRectangle;html=1;whiteSpace=wrap;connectable=0;strokeColor=inherit;overflow=hidden;fillColor=none;top=0;left=0;bottom=0;right=0;pointerEvents=1;fontSize=16;" vertex="1" parent="2tVpoDA7U7rSNusbg8pE-46">
          <mxGeometry width="90" height="23" as="geometry">
            <mxRectangle width="90" height="23" as="alternateBounds" />
          </mxGeometry>
        </mxCell>
        <mxCell id="2tVpoDA7U7rSNusbg8pE-48" style="shape=partialRectangle;html=1;whiteSpace=wrap;connectable=0;strokeColor=inherit;overflow=hidden;fillColor=none;top=0;left=0;bottom=0;right=0;pointerEvents=1;fontSize=16;" vertex="1" parent="2tVpoDA7U7rSNusbg8pE-46">
          <mxGeometry x="90" width="60" height="23" as="geometry">
            <mxRectangle width="60" height="23" as="alternateBounds" />
          </mxGeometry>
        </mxCell>
        <mxCell id="2tVpoDA7U7rSNusbg8pE-49" style="shape=partialRectangle;html=1;whiteSpace=wrap;connectable=0;strokeColor=inherit;overflow=hidden;fillColor=none;top=0;left=0;bottom=0;right=0;pointerEvents=1;fontSize=16;" vertex="1" parent="2tVpoDA7U7rSNusbg8pE-46">
          <mxGeometry x="150" width="60" height="23" as="geometry">
            <mxRectangle width="60" height="23" as="alternateBounds" />
          </mxGeometry>
        </mxCell>
        <mxCell id="2tVpoDA7U7rSNusbg8pE-50" style="shape=partialRectangle;html=1;whiteSpace=wrap;connectable=0;strokeColor=inherit;overflow=hidden;fillColor=none;top=0;left=0;bottom=0;right=0;pointerEvents=1;fontSize=16;" vertex="1" parent="2tVpoDA7U7rSNusbg8pE-46">
          <mxGeometry x="210" width="63" height="23" as="geometry">
            <mxRectangle width="63" height="23" as="alternateBounds" />
          </mxGeometry>
        </mxCell>
        <mxCell id="2tVpoDA7U7rSNusbg8pE-51" style="shape=tableRow;horizontal=0;startSize=0;swimlaneHead=0;swimlaneBody=0;strokeColor=inherit;top=0;left=0;bottom=0;right=0;collapsible=0;dropTarget=0;fillColor=none;points=[[0,0.5],[1,0.5]];portConstraint=eastwest;fontSize=16;" vertex="1" parent="V3QT0Z4RZKV1k2BMbgVx-1">
          <mxGeometry y="714" width="273" height="23" as="geometry" />
        </mxCell>
        <mxCell id="2tVpoDA7U7rSNusbg8pE-52" style="shape=partialRectangle;html=1;whiteSpace=wrap;connectable=0;strokeColor=inherit;overflow=hidden;fillColor=none;top=0;left=0;bottom=0;right=0;pointerEvents=1;fontSize=16;" vertex="1" parent="2tVpoDA7U7rSNusbg8pE-51">
          <mxGeometry width="90" height="23" as="geometry">
            <mxRectangle width="90" height="23" as="alternateBounds" />
          </mxGeometry>
        </mxCell>
        <mxCell id="2tVpoDA7U7rSNusbg8pE-53" style="shape=partialRectangle;html=1;whiteSpace=wrap;connectable=0;strokeColor=inherit;overflow=hidden;fillColor=none;top=0;left=0;bottom=0;right=0;pointerEvents=1;fontSize=16;" vertex="1" parent="2tVpoDA7U7rSNusbg8pE-51">
          <mxGeometry x="90" width="60" height="23" as="geometry">
            <mxRectangle width="60" height="23" as="alternateBounds" />
          </mxGeometry>
        </mxCell>
        <mxCell id="2tVpoDA7U7rSNusbg8pE-54" style="shape=partialRectangle;html=1;whiteSpace=wrap;connectable=0;strokeColor=inherit;overflow=hidden;fillColor=none;top=0;left=0;bottom=0;right=0;pointerEvents=1;fontSize=16;" vertex="1" parent="2tVpoDA7U7rSNusbg8pE-51">
          <mxGeometry x="150" width="60" height="23" as="geometry">
            <mxRectangle width="60" height="23" as="alternateBounds" />
          </mxGeometry>
        </mxCell>
        <mxCell id="2tVpoDA7U7rSNusbg8pE-55" style="shape=partialRectangle;html=1;whiteSpace=wrap;connectable=0;strokeColor=inherit;overflow=hidden;fillColor=none;top=0;left=0;bottom=0;right=0;pointerEvents=1;fontSize=16;" vertex="1" parent="2tVpoDA7U7rSNusbg8pE-51">
          <mxGeometry x="210" width="63" height="23" as="geometry">
            <mxRectangle width="63" height="23" as="alternateBounds" />
          </mxGeometry>
        </mxCell>
        <mxCell id="2tVpoDA7U7rSNusbg8pE-56" style="shape=tableRow;horizontal=0;startSize=0;swimlaneHead=0;swimlaneBody=0;strokeColor=inherit;top=0;left=0;bottom=0;right=0;collapsible=0;dropTarget=0;fillColor=none;points=[[0,0.5],[1,0.5]];portConstraint=eastwest;fontSize=16;" vertex="1" parent="V3QT0Z4RZKV1k2BMbgVx-1">
          <mxGeometry y="737" width="273" height="23" as="geometry" />
        </mxCell>
        <mxCell id="2tVpoDA7U7rSNusbg8pE-57" style="shape=partialRectangle;html=1;whiteSpace=wrap;connectable=0;strokeColor=inherit;overflow=hidden;fillColor=none;top=0;left=0;bottom=0;right=0;pointerEvents=1;fontSize=16;" vertex="1" parent="2tVpoDA7U7rSNusbg8pE-56">
          <mxGeometry width="90" height="23" as="geometry">
            <mxRectangle width="90" height="23" as="alternateBounds" />
          </mxGeometry>
        </mxCell>
        <mxCell id="2tVpoDA7U7rSNusbg8pE-58" style="shape=partialRectangle;html=1;whiteSpace=wrap;connectable=0;strokeColor=inherit;overflow=hidden;fillColor=none;top=0;left=0;bottom=0;right=0;pointerEvents=1;fontSize=16;" vertex="1" parent="2tVpoDA7U7rSNusbg8pE-56">
          <mxGeometry x="90" width="60" height="23" as="geometry">
            <mxRectangle width="60" height="23" as="alternateBounds" />
          </mxGeometry>
        </mxCell>
        <mxCell id="2tVpoDA7U7rSNusbg8pE-59" style="shape=partialRectangle;html=1;whiteSpace=wrap;connectable=0;strokeColor=inherit;overflow=hidden;fillColor=none;top=0;left=0;bottom=0;right=0;pointerEvents=1;fontSize=16;" vertex="1" parent="2tVpoDA7U7rSNusbg8pE-56">
          <mxGeometry x="150" width="60" height="23" as="geometry">
            <mxRectangle width="60" height="23" as="alternateBounds" />
          </mxGeometry>
        </mxCell>
        <mxCell id="2tVpoDA7U7rSNusbg8pE-60" style="shape=partialRectangle;html=1;whiteSpace=wrap;connectable=0;strokeColor=inherit;overflow=hidden;fillColor=none;top=0;left=0;bottom=0;right=0;pointerEvents=1;fontSize=16;" vertex="1" parent="2tVpoDA7U7rSNusbg8pE-56">
          <mxGeometry x="210" width="63" height="23" as="geometry">
            <mxRectangle width="63" height="23" as="alternateBounds" />
          </mxGeometry>
        </mxCell>
        <mxCell id="2tVpoDA7U7rSNusbg8pE-61" style="shape=tableRow;horizontal=0;startSize=0;swimlaneHead=0;swimlaneBody=0;strokeColor=inherit;top=0;left=0;bottom=0;right=0;collapsible=0;dropTarget=0;fillColor=none;points=[[0,0.5],[1,0.5]];portConstraint=eastwest;fontSize=16;" vertex="1" parent="V3QT0Z4RZKV1k2BMbgVx-1">
          <mxGeometry y="760" width="273" height="23" as="geometry" />
        </mxCell>
        <mxCell id="2tVpoDA7U7rSNusbg8pE-62" style="shape=partialRectangle;html=1;whiteSpace=wrap;connectable=0;strokeColor=inherit;overflow=hidden;fillColor=none;top=0;left=0;bottom=0;right=0;pointerEvents=1;fontSize=16;" vertex="1" parent="2tVpoDA7U7rSNusbg8pE-61">
          <mxGeometry width="90" height="23" as="geometry">
            <mxRectangle width="90" height="23" as="alternateBounds" />
          </mxGeometry>
        </mxCell>
        <mxCell id="2tVpoDA7U7rSNusbg8pE-63" style="shape=partialRectangle;html=1;whiteSpace=wrap;connectable=0;strokeColor=inherit;overflow=hidden;fillColor=none;top=0;left=0;bottom=0;right=0;pointerEvents=1;fontSize=16;" vertex="1" parent="2tVpoDA7U7rSNusbg8pE-61">
          <mxGeometry x="90" width="60" height="23" as="geometry">
            <mxRectangle width="60" height="23" as="alternateBounds" />
          </mxGeometry>
        </mxCell>
        <mxCell id="2tVpoDA7U7rSNusbg8pE-64" style="shape=partialRectangle;html=1;whiteSpace=wrap;connectable=0;strokeColor=inherit;overflow=hidden;fillColor=none;top=0;left=0;bottom=0;right=0;pointerEvents=1;fontSize=16;" vertex="1" parent="2tVpoDA7U7rSNusbg8pE-61">
          <mxGeometry x="150" width="60" height="23" as="geometry">
            <mxRectangle width="60" height="23" as="alternateBounds" />
          </mxGeometry>
        </mxCell>
        <mxCell id="2tVpoDA7U7rSNusbg8pE-65" style="shape=partialRectangle;html=1;whiteSpace=wrap;connectable=0;strokeColor=inherit;overflow=hidden;fillColor=none;top=0;left=0;bottom=0;right=0;pointerEvents=1;fontSize=16;" vertex="1" parent="2tVpoDA7U7rSNusbg8pE-61">
          <mxGeometry x="210" width="63" height="23" as="geometry">
            <mxRectangle width="63" height="23" as="alternateBounds" />
          </mxGeometry>
        </mxCell>
        <mxCell id="2tVpoDA7U7rSNusbg8pE-66" style="shape=tableRow;horizontal=0;startSize=0;swimlaneHead=0;swimlaneBody=0;strokeColor=inherit;top=0;left=0;bottom=0;right=0;collapsible=0;dropTarget=0;fillColor=none;points=[[0,0.5],[1,0.5]];portConstraint=eastwest;fontSize=16;" vertex="1" parent="V3QT0Z4RZKV1k2BMbgVx-1">
          <mxGeometry y="783" width="273" height="23" as="geometry" />
        </mxCell>
        <mxCell id="2tVpoDA7U7rSNusbg8pE-67" style="shape=partialRectangle;html=1;whiteSpace=wrap;connectable=0;strokeColor=inherit;overflow=hidden;fillColor=none;top=0;left=0;bottom=0;right=0;pointerEvents=1;fontSize=16;" vertex="1" parent="2tVpoDA7U7rSNusbg8pE-66">
          <mxGeometry width="90" height="23" as="geometry">
            <mxRectangle width="90" height="23" as="alternateBounds" />
          </mxGeometry>
        </mxCell>
        <mxCell id="2tVpoDA7U7rSNusbg8pE-68" style="shape=partialRectangle;html=1;whiteSpace=wrap;connectable=0;strokeColor=inherit;overflow=hidden;fillColor=none;top=0;left=0;bottom=0;right=0;pointerEvents=1;fontSize=16;" vertex="1" parent="2tVpoDA7U7rSNusbg8pE-66">
          <mxGeometry x="90" width="60" height="23" as="geometry">
            <mxRectangle width="60" height="23" as="alternateBounds" />
          </mxGeometry>
        </mxCell>
        <mxCell id="2tVpoDA7U7rSNusbg8pE-69" style="shape=partialRectangle;html=1;whiteSpace=wrap;connectable=0;strokeColor=inherit;overflow=hidden;fillColor=none;top=0;left=0;bottom=0;right=0;pointerEvents=1;fontSize=16;" vertex="1" parent="2tVpoDA7U7rSNusbg8pE-66">
          <mxGeometry x="150" width="60" height="23" as="geometry">
            <mxRectangle width="60" height="23" as="alternateBounds" />
          </mxGeometry>
        </mxCell>
        <mxCell id="2tVpoDA7U7rSNusbg8pE-70" style="shape=partialRectangle;html=1;whiteSpace=wrap;connectable=0;strokeColor=inherit;overflow=hidden;fillColor=none;top=0;left=0;bottom=0;right=0;pointerEvents=1;fontSize=16;" vertex="1" parent="2tVpoDA7U7rSNusbg8pE-66">
          <mxGeometry x="210" width="63" height="23" as="geometry">
            <mxRectangle width="63" height="23" as="alternateBounds" />
          </mxGeometry>
        </mxCell>
        <mxCell id="2tVpoDA7U7rSNusbg8pE-71" style="shape=tableRow;horizontal=0;startSize=0;swimlaneHead=0;swimlaneBody=0;strokeColor=inherit;top=0;left=0;bottom=0;right=0;collapsible=0;dropTarget=0;fillColor=none;points=[[0,0.5],[1,0.5]];portConstraint=eastwest;fontSize=16;" vertex="1" parent="V3QT0Z4RZKV1k2BMbgVx-1">
          <mxGeometry y="806" width="273" height="23" as="geometry" />
        </mxCell>
        <mxCell id="2tVpoDA7U7rSNusbg8pE-72" style="shape=partialRectangle;html=1;whiteSpace=wrap;connectable=0;strokeColor=inherit;overflow=hidden;fillColor=none;top=0;left=0;bottom=0;right=0;pointerEvents=1;fontSize=16;" vertex="1" parent="2tVpoDA7U7rSNusbg8pE-71">
          <mxGeometry width="90" height="23" as="geometry">
            <mxRectangle width="90" height="23" as="alternateBounds" />
          </mxGeometry>
        </mxCell>
        <mxCell id="2tVpoDA7U7rSNusbg8pE-73" style="shape=partialRectangle;html=1;whiteSpace=wrap;connectable=0;strokeColor=inherit;overflow=hidden;fillColor=none;top=0;left=0;bottom=0;right=0;pointerEvents=1;fontSize=16;" vertex="1" parent="2tVpoDA7U7rSNusbg8pE-71">
          <mxGeometry x="90" width="60" height="23" as="geometry">
            <mxRectangle width="60" height="23" as="alternateBounds" />
          </mxGeometry>
        </mxCell>
        <mxCell id="2tVpoDA7U7rSNusbg8pE-74" style="shape=partialRectangle;html=1;whiteSpace=wrap;connectable=0;strokeColor=inherit;overflow=hidden;fillColor=none;top=0;left=0;bottom=0;right=0;pointerEvents=1;fontSize=16;" vertex="1" parent="2tVpoDA7U7rSNusbg8pE-71">
          <mxGeometry x="150" width="60" height="23" as="geometry">
            <mxRectangle width="60" height="23" as="alternateBounds" />
          </mxGeometry>
        </mxCell>
        <mxCell id="2tVpoDA7U7rSNusbg8pE-75" style="shape=partialRectangle;html=1;whiteSpace=wrap;connectable=0;strokeColor=inherit;overflow=hidden;fillColor=none;top=0;left=0;bottom=0;right=0;pointerEvents=1;fontSize=16;" vertex="1" parent="2tVpoDA7U7rSNusbg8pE-71">
          <mxGeometry x="210" width="63" height="23" as="geometry">
            <mxRectangle width="63" height="23" as="alternateBounds" />
          </mxGeometry>
        </mxCell>
        <mxCell id="2tVpoDA7U7rSNusbg8pE-76" style="shape=tableRow;horizontal=0;startSize=0;swimlaneHead=0;swimlaneBody=0;strokeColor=inherit;top=0;left=0;bottom=0;right=0;collapsible=0;dropTarget=0;fillColor=none;points=[[0,0.5],[1,0.5]];portConstraint=eastwest;fontSize=16;" vertex="1" parent="V3QT0Z4RZKV1k2BMbgVx-1">
          <mxGeometry y="829" width="273" height="23" as="geometry" />
        </mxCell>
        <mxCell id="2tVpoDA7U7rSNusbg8pE-77" style="shape=partialRectangle;html=1;whiteSpace=wrap;connectable=0;strokeColor=inherit;overflow=hidden;fillColor=none;top=0;left=0;bottom=0;right=0;pointerEvents=1;fontSize=16;" vertex="1" parent="2tVpoDA7U7rSNusbg8pE-76">
          <mxGeometry width="90" height="23" as="geometry">
            <mxRectangle width="90" height="23" as="alternateBounds" />
          </mxGeometry>
        </mxCell>
        <mxCell id="2tVpoDA7U7rSNusbg8pE-78" style="shape=partialRectangle;html=1;whiteSpace=wrap;connectable=0;strokeColor=inherit;overflow=hidden;fillColor=none;top=0;left=0;bottom=0;right=0;pointerEvents=1;fontSize=16;" vertex="1" parent="2tVpoDA7U7rSNusbg8pE-76">
          <mxGeometry x="90" width="60" height="23" as="geometry">
            <mxRectangle width="60" height="23" as="alternateBounds" />
          </mxGeometry>
        </mxCell>
        <mxCell id="2tVpoDA7U7rSNusbg8pE-79" style="shape=partialRectangle;html=1;whiteSpace=wrap;connectable=0;strokeColor=inherit;overflow=hidden;fillColor=none;top=0;left=0;bottom=0;right=0;pointerEvents=1;fontSize=16;" vertex="1" parent="2tVpoDA7U7rSNusbg8pE-76">
          <mxGeometry x="150" width="60" height="23" as="geometry">
            <mxRectangle width="60" height="23" as="alternateBounds" />
          </mxGeometry>
        </mxCell>
        <mxCell id="2tVpoDA7U7rSNusbg8pE-80" style="shape=partialRectangle;html=1;whiteSpace=wrap;connectable=0;strokeColor=inherit;overflow=hidden;fillColor=none;top=0;left=0;bottom=0;right=0;pointerEvents=1;fontSize=16;" vertex="1" parent="2tVpoDA7U7rSNusbg8pE-76">
          <mxGeometry x="210" width="63" height="23" as="geometry">
            <mxRectangle width="63" height="23" as="alternateBounds" />
          </mxGeometry>
        </mxCell>
        <mxCell id="2tVpoDA7U7rSNusbg8pE-81" style="shape=tableRow;horizontal=0;startSize=0;swimlaneHead=0;swimlaneBody=0;strokeColor=inherit;top=0;left=0;bottom=0;right=0;collapsible=0;dropTarget=0;fillColor=none;points=[[0,0.5],[1,0.5]];portConstraint=eastwest;fontSize=16;" vertex="1" parent="V3QT0Z4RZKV1k2BMbgVx-1">
          <mxGeometry y="852" width="273" height="23" as="geometry" />
        </mxCell>
        <mxCell id="2tVpoDA7U7rSNusbg8pE-82" style="shape=partialRectangle;html=1;whiteSpace=wrap;connectable=0;strokeColor=inherit;overflow=hidden;fillColor=none;top=0;left=0;bottom=0;right=0;pointerEvents=1;fontSize=16;" vertex="1" parent="2tVpoDA7U7rSNusbg8pE-81">
          <mxGeometry width="90" height="23" as="geometry">
            <mxRectangle width="90" height="23" as="alternateBounds" />
          </mxGeometry>
        </mxCell>
        <mxCell id="2tVpoDA7U7rSNusbg8pE-83" style="shape=partialRectangle;html=1;whiteSpace=wrap;connectable=0;strokeColor=inherit;overflow=hidden;fillColor=none;top=0;left=0;bottom=0;right=0;pointerEvents=1;fontSize=16;" vertex="1" parent="2tVpoDA7U7rSNusbg8pE-81">
          <mxGeometry x="90" width="60" height="23" as="geometry">
            <mxRectangle width="60" height="23" as="alternateBounds" />
          </mxGeometry>
        </mxCell>
        <mxCell id="2tVpoDA7U7rSNusbg8pE-84" style="shape=partialRectangle;html=1;whiteSpace=wrap;connectable=0;strokeColor=inherit;overflow=hidden;fillColor=none;top=0;left=0;bottom=0;right=0;pointerEvents=1;fontSize=16;" vertex="1" parent="2tVpoDA7U7rSNusbg8pE-81">
          <mxGeometry x="150" width="60" height="23" as="geometry">
            <mxRectangle width="60" height="23" as="alternateBounds" />
          </mxGeometry>
        </mxCell>
        <mxCell id="2tVpoDA7U7rSNusbg8pE-85" style="shape=partialRectangle;html=1;whiteSpace=wrap;connectable=0;strokeColor=inherit;overflow=hidden;fillColor=none;top=0;left=0;bottom=0;right=0;pointerEvents=1;fontSize=16;" vertex="1" parent="2tVpoDA7U7rSNusbg8pE-81">
          <mxGeometry x="210" width="63" height="23" as="geometry">
            <mxRectangle width="63" height="23" as="alternateBounds" />
          </mxGeometry>
        </mxCell>
        <mxCell id="2tVpoDA7U7rSNusbg8pE-86" style="shape=tableRow;horizontal=0;startSize=0;swimlaneHead=0;swimlaneBody=0;strokeColor=inherit;top=0;left=0;bottom=0;right=0;collapsible=0;dropTarget=0;fillColor=none;points=[[0,0.5],[1,0.5]];portConstraint=eastwest;fontSize=16;" vertex="1" parent="V3QT0Z4RZKV1k2BMbgVx-1">
          <mxGeometry y="875" width="273" height="23" as="geometry" />
        </mxCell>
        <mxCell id="2tVpoDA7U7rSNusbg8pE-87" style="shape=partialRectangle;html=1;whiteSpace=wrap;connectable=0;strokeColor=inherit;overflow=hidden;fillColor=none;top=0;left=0;bottom=0;right=0;pointerEvents=1;fontSize=16;" vertex="1" parent="2tVpoDA7U7rSNusbg8pE-86">
          <mxGeometry width="90" height="23" as="geometry">
            <mxRectangle width="90" height="23" as="alternateBounds" />
          </mxGeometry>
        </mxCell>
        <mxCell id="2tVpoDA7U7rSNusbg8pE-88" style="shape=partialRectangle;html=1;whiteSpace=wrap;connectable=0;strokeColor=inherit;overflow=hidden;fillColor=none;top=0;left=0;bottom=0;right=0;pointerEvents=1;fontSize=16;" vertex="1" parent="2tVpoDA7U7rSNusbg8pE-86">
          <mxGeometry x="90" width="60" height="23" as="geometry">
            <mxRectangle width="60" height="23" as="alternateBounds" />
          </mxGeometry>
        </mxCell>
        <mxCell id="2tVpoDA7U7rSNusbg8pE-89" style="shape=partialRectangle;html=1;whiteSpace=wrap;connectable=0;strokeColor=inherit;overflow=hidden;fillColor=none;top=0;left=0;bottom=0;right=0;pointerEvents=1;fontSize=16;" vertex="1" parent="2tVpoDA7U7rSNusbg8pE-86">
          <mxGeometry x="150" width="60" height="23" as="geometry">
            <mxRectangle width="60" height="23" as="alternateBounds" />
          </mxGeometry>
        </mxCell>
        <mxCell id="2tVpoDA7U7rSNusbg8pE-90" style="shape=partialRectangle;html=1;whiteSpace=wrap;connectable=0;strokeColor=inherit;overflow=hidden;fillColor=none;top=0;left=0;bottom=0;right=0;pointerEvents=1;fontSize=16;" vertex="1" parent="2tVpoDA7U7rSNusbg8pE-86">
          <mxGeometry x="210" width="63" height="23" as="geometry">
            <mxRectangle width="63" height="23" as="alternateBounds" />
          </mxGeometry>
        </mxCell>
        <mxCell id="2tVpoDA7U7rSNusbg8pE-91" style="shape=tableRow;horizontal=0;startSize=0;swimlaneHead=0;swimlaneBody=0;strokeColor=inherit;top=0;left=0;bottom=0;right=0;collapsible=0;dropTarget=0;fillColor=none;points=[[0,0.5],[1,0.5]];portConstraint=eastwest;fontSize=16;" vertex="1" parent="V3QT0Z4RZKV1k2BMbgVx-1">
          <mxGeometry y="898" width="273" height="23" as="geometry" />
        </mxCell>
        <mxCell id="2tVpoDA7U7rSNusbg8pE-92" style="shape=partialRectangle;html=1;whiteSpace=wrap;connectable=0;strokeColor=inherit;overflow=hidden;fillColor=none;top=0;left=0;bottom=0;right=0;pointerEvents=1;fontSize=16;" vertex="1" parent="2tVpoDA7U7rSNusbg8pE-91">
          <mxGeometry width="90" height="23" as="geometry">
            <mxRectangle width="90" height="23" as="alternateBounds" />
          </mxGeometry>
        </mxCell>
        <mxCell id="2tVpoDA7U7rSNusbg8pE-93" style="shape=partialRectangle;html=1;whiteSpace=wrap;connectable=0;strokeColor=inherit;overflow=hidden;fillColor=none;top=0;left=0;bottom=0;right=0;pointerEvents=1;fontSize=16;" vertex="1" parent="2tVpoDA7U7rSNusbg8pE-91">
          <mxGeometry x="90" width="60" height="23" as="geometry">
            <mxRectangle width="60" height="23" as="alternateBounds" />
          </mxGeometry>
        </mxCell>
        <mxCell id="2tVpoDA7U7rSNusbg8pE-94" style="shape=partialRectangle;html=1;whiteSpace=wrap;connectable=0;strokeColor=inherit;overflow=hidden;fillColor=none;top=0;left=0;bottom=0;right=0;pointerEvents=1;fontSize=16;" vertex="1" parent="2tVpoDA7U7rSNusbg8pE-91">
          <mxGeometry x="150" width="60" height="23" as="geometry">
            <mxRectangle width="60" height="23" as="alternateBounds" />
          </mxGeometry>
        </mxCell>
        <mxCell id="2tVpoDA7U7rSNusbg8pE-95" style="shape=partialRectangle;html=1;whiteSpace=wrap;connectable=0;strokeColor=inherit;overflow=hidden;fillColor=none;top=0;left=0;bottom=0;right=0;pointerEvents=1;fontSize=16;" vertex="1" parent="2tVpoDA7U7rSNusbg8pE-91">
          <mxGeometry x="210" width="63" height="23" as="geometry">
            <mxRectangle width="63" height="23" as="alternateBounds" />
          </mxGeometry>
        </mxCell>
        <mxCell id="2tVpoDA7U7rSNusbg8pE-96" style="shape=tableRow;horizontal=0;startSize=0;swimlaneHead=0;swimlaneBody=0;strokeColor=inherit;top=0;left=0;bottom=0;right=0;collapsible=0;dropTarget=0;fillColor=none;points=[[0,0.5],[1,0.5]];portConstraint=eastwest;fontSize=16;" vertex="1" parent="V3QT0Z4RZKV1k2BMbgVx-1">
          <mxGeometry y="921" width="273" height="23" as="geometry" />
        </mxCell>
        <mxCell id="2tVpoDA7U7rSNusbg8pE-97" style="shape=partialRectangle;html=1;whiteSpace=wrap;connectable=0;strokeColor=inherit;overflow=hidden;fillColor=none;top=0;left=0;bottom=0;right=0;pointerEvents=1;fontSize=16;" vertex="1" parent="2tVpoDA7U7rSNusbg8pE-96">
          <mxGeometry width="90" height="23" as="geometry">
            <mxRectangle width="90" height="23" as="alternateBounds" />
          </mxGeometry>
        </mxCell>
        <mxCell id="2tVpoDA7U7rSNusbg8pE-98" style="shape=partialRectangle;html=1;whiteSpace=wrap;connectable=0;strokeColor=inherit;overflow=hidden;fillColor=none;top=0;left=0;bottom=0;right=0;pointerEvents=1;fontSize=16;" vertex="1" parent="2tVpoDA7U7rSNusbg8pE-96">
          <mxGeometry x="90" width="60" height="23" as="geometry">
            <mxRectangle width="60" height="23" as="alternateBounds" />
          </mxGeometry>
        </mxCell>
        <mxCell id="2tVpoDA7U7rSNusbg8pE-99" style="shape=partialRectangle;html=1;whiteSpace=wrap;connectable=0;strokeColor=inherit;overflow=hidden;fillColor=none;top=0;left=0;bottom=0;right=0;pointerEvents=1;fontSize=16;" vertex="1" parent="2tVpoDA7U7rSNusbg8pE-96">
          <mxGeometry x="150" width="60" height="23" as="geometry">
            <mxRectangle width="60" height="23" as="alternateBounds" />
          </mxGeometry>
        </mxCell>
        <mxCell id="2tVpoDA7U7rSNusbg8pE-100" style="shape=partialRectangle;html=1;whiteSpace=wrap;connectable=0;strokeColor=inherit;overflow=hidden;fillColor=none;top=0;left=0;bottom=0;right=0;pointerEvents=1;fontSize=16;" vertex="1" parent="2tVpoDA7U7rSNusbg8pE-96">
          <mxGeometry x="210" width="63" height="23" as="geometry">
            <mxRectangle width="63" height="23" as="alternateBounds" />
          </mxGeometry>
        </mxCell>
        <mxCell id="2tVpoDA7U7rSNusbg8pE-101" style="shape=tableRow;horizontal=0;startSize=0;swimlaneHead=0;swimlaneBody=0;strokeColor=inherit;top=0;left=0;bottom=0;right=0;collapsible=0;dropTarget=0;fillColor=none;points=[[0,0.5],[1,0.5]];portConstraint=eastwest;fontSize=16;" vertex="1" parent="V3QT0Z4RZKV1k2BMbgVx-1">
          <mxGeometry y="944" width="273" height="23" as="geometry" />
        </mxCell>
        <mxCell id="2tVpoDA7U7rSNusbg8pE-102" style="shape=partialRectangle;html=1;whiteSpace=wrap;connectable=0;strokeColor=inherit;overflow=hidden;fillColor=none;top=0;left=0;bottom=0;right=0;pointerEvents=1;fontSize=16;" vertex="1" parent="2tVpoDA7U7rSNusbg8pE-101">
          <mxGeometry width="90" height="23" as="geometry">
            <mxRectangle width="90" height="23" as="alternateBounds" />
          </mxGeometry>
        </mxCell>
        <mxCell id="2tVpoDA7U7rSNusbg8pE-103" style="shape=partialRectangle;html=1;whiteSpace=wrap;connectable=0;strokeColor=inherit;overflow=hidden;fillColor=none;top=0;left=0;bottom=0;right=0;pointerEvents=1;fontSize=16;" vertex="1" parent="2tVpoDA7U7rSNusbg8pE-101">
          <mxGeometry x="90" width="60" height="23" as="geometry">
            <mxRectangle width="60" height="23" as="alternateBounds" />
          </mxGeometry>
        </mxCell>
        <mxCell id="2tVpoDA7U7rSNusbg8pE-104" style="shape=partialRectangle;html=1;whiteSpace=wrap;connectable=0;strokeColor=inherit;overflow=hidden;fillColor=none;top=0;left=0;bottom=0;right=0;pointerEvents=1;fontSize=16;" vertex="1" parent="2tVpoDA7U7rSNusbg8pE-101">
          <mxGeometry x="150" width="60" height="23" as="geometry">
            <mxRectangle width="60" height="23" as="alternateBounds" />
          </mxGeometry>
        </mxCell>
        <mxCell id="2tVpoDA7U7rSNusbg8pE-105" style="shape=partialRectangle;html=1;whiteSpace=wrap;connectable=0;strokeColor=inherit;overflow=hidden;fillColor=none;top=0;left=0;bottom=0;right=0;pointerEvents=1;fontSize=16;" vertex="1" parent="2tVpoDA7U7rSNusbg8pE-101">
          <mxGeometry x="210" width="63" height="23" as="geometry">
            <mxRectangle width="63" height="23" as="alternateBounds" />
          </mxGeometry>
        </mxCell>
        <mxCell id="2tVpoDA7U7rSNusbg8pE-106" style="shape=tableRow;horizontal=0;startSize=0;swimlaneHead=0;swimlaneBody=0;strokeColor=inherit;top=0;left=0;bottom=0;right=0;collapsible=0;dropTarget=0;fillColor=none;points=[[0,0.5],[1,0.5]];portConstraint=eastwest;fontSize=16;" vertex="1" parent="V3QT0Z4RZKV1k2BMbgVx-1">
          <mxGeometry y="967" width="273" height="23" as="geometry" />
        </mxCell>
        <mxCell id="2tVpoDA7U7rSNusbg8pE-107" style="shape=partialRectangle;html=1;whiteSpace=wrap;connectable=0;strokeColor=inherit;overflow=hidden;fillColor=none;top=0;left=0;bottom=0;right=0;pointerEvents=1;fontSize=16;" vertex="1" parent="2tVpoDA7U7rSNusbg8pE-106">
          <mxGeometry width="90" height="23" as="geometry">
            <mxRectangle width="90" height="23" as="alternateBounds" />
          </mxGeometry>
        </mxCell>
        <mxCell id="2tVpoDA7U7rSNusbg8pE-108" style="shape=partialRectangle;html=1;whiteSpace=wrap;connectable=0;strokeColor=inherit;overflow=hidden;fillColor=none;top=0;left=0;bottom=0;right=0;pointerEvents=1;fontSize=16;" vertex="1" parent="2tVpoDA7U7rSNusbg8pE-106">
          <mxGeometry x="90" width="60" height="23" as="geometry">
            <mxRectangle width="60" height="23" as="alternateBounds" />
          </mxGeometry>
        </mxCell>
        <mxCell id="2tVpoDA7U7rSNusbg8pE-109" style="shape=partialRectangle;html=1;whiteSpace=wrap;connectable=0;strokeColor=inherit;overflow=hidden;fillColor=none;top=0;left=0;bottom=0;right=0;pointerEvents=1;fontSize=16;" vertex="1" parent="2tVpoDA7U7rSNusbg8pE-106">
          <mxGeometry x="150" width="60" height="23" as="geometry">
            <mxRectangle width="60" height="23" as="alternateBounds" />
          </mxGeometry>
        </mxCell>
        <mxCell id="2tVpoDA7U7rSNusbg8pE-110" style="shape=partialRectangle;html=1;whiteSpace=wrap;connectable=0;strokeColor=inherit;overflow=hidden;fillColor=none;top=0;left=0;bottom=0;right=0;pointerEvents=1;fontSize=16;" vertex="1" parent="2tVpoDA7U7rSNusbg8pE-106">
          <mxGeometry x="210" width="63" height="23" as="geometry">
            <mxRectangle width="63" height="23" as="alternateBounds" />
          </mxGeometry>
        </mxCell>
        <mxCell id="2tVpoDA7U7rSNusbg8pE-111" style="shape=tableRow;horizontal=0;startSize=0;swimlaneHead=0;swimlaneBody=0;strokeColor=inherit;top=0;left=0;bottom=0;right=0;collapsible=0;dropTarget=0;fillColor=none;points=[[0,0.5],[1,0.5]];portConstraint=eastwest;fontSize=16;" vertex="1" parent="V3QT0Z4RZKV1k2BMbgVx-1">
          <mxGeometry y="990" width="273" height="23" as="geometry" />
        </mxCell>
        <mxCell id="2tVpoDA7U7rSNusbg8pE-112" style="shape=partialRectangle;html=1;whiteSpace=wrap;connectable=0;strokeColor=inherit;overflow=hidden;fillColor=none;top=0;left=0;bottom=0;right=0;pointerEvents=1;fontSize=16;" vertex="1" parent="2tVpoDA7U7rSNusbg8pE-111">
          <mxGeometry width="90" height="23" as="geometry">
            <mxRectangle width="90" height="23" as="alternateBounds" />
          </mxGeometry>
        </mxCell>
        <mxCell id="2tVpoDA7U7rSNusbg8pE-113" style="shape=partialRectangle;html=1;whiteSpace=wrap;connectable=0;strokeColor=inherit;overflow=hidden;fillColor=none;top=0;left=0;bottom=0;right=0;pointerEvents=1;fontSize=16;" vertex="1" parent="2tVpoDA7U7rSNusbg8pE-111">
          <mxGeometry x="90" width="60" height="23" as="geometry">
            <mxRectangle width="60" height="23" as="alternateBounds" />
          </mxGeometry>
        </mxCell>
        <mxCell id="2tVpoDA7U7rSNusbg8pE-114" style="shape=partialRectangle;html=1;whiteSpace=wrap;connectable=0;strokeColor=inherit;overflow=hidden;fillColor=none;top=0;left=0;bottom=0;right=0;pointerEvents=1;fontSize=16;" vertex="1" parent="2tVpoDA7U7rSNusbg8pE-111">
          <mxGeometry x="150" width="60" height="23" as="geometry">
            <mxRectangle width="60" height="23" as="alternateBounds" />
          </mxGeometry>
        </mxCell>
        <mxCell id="2tVpoDA7U7rSNusbg8pE-115" style="shape=partialRectangle;html=1;whiteSpace=wrap;connectable=0;strokeColor=inherit;overflow=hidden;fillColor=none;top=0;left=0;bottom=0;right=0;pointerEvents=1;fontSize=16;" vertex="1" parent="2tVpoDA7U7rSNusbg8pE-111">
          <mxGeometry x="210" width="63" height="23" as="geometry">
            <mxRectangle width="63" height="23" as="alternateBounds" />
          </mxGeometry>
        </mxCell>
        <mxCell id="2tVpoDA7U7rSNusbg8pE-116" style="shape=tableRow;horizontal=0;startSize=0;swimlaneHead=0;swimlaneBody=0;strokeColor=inherit;top=0;left=0;bottom=0;right=0;collapsible=0;dropTarget=0;fillColor=none;points=[[0,0.5],[1,0.5]];portConstraint=eastwest;fontSize=16;" vertex="1" parent="V3QT0Z4RZKV1k2BMbgVx-1">
          <mxGeometry y="1013" width="273" height="23" as="geometry" />
        </mxCell>
        <mxCell id="2tVpoDA7U7rSNusbg8pE-117" style="shape=partialRectangle;html=1;whiteSpace=wrap;connectable=0;strokeColor=inherit;overflow=hidden;fillColor=none;top=0;left=0;bottom=0;right=0;pointerEvents=1;fontSize=16;" vertex="1" parent="2tVpoDA7U7rSNusbg8pE-116">
          <mxGeometry width="90" height="23" as="geometry">
            <mxRectangle width="90" height="23" as="alternateBounds" />
          </mxGeometry>
        </mxCell>
        <mxCell id="2tVpoDA7U7rSNusbg8pE-118" style="shape=partialRectangle;html=1;whiteSpace=wrap;connectable=0;strokeColor=inherit;overflow=hidden;fillColor=none;top=0;left=0;bottom=0;right=0;pointerEvents=1;fontSize=16;" vertex="1" parent="2tVpoDA7U7rSNusbg8pE-116">
          <mxGeometry x="90" width="60" height="23" as="geometry">
            <mxRectangle width="60" height="23" as="alternateBounds" />
          </mxGeometry>
        </mxCell>
        <mxCell id="2tVpoDA7U7rSNusbg8pE-119" style="shape=partialRectangle;html=1;whiteSpace=wrap;connectable=0;strokeColor=inherit;overflow=hidden;fillColor=none;top=0;left=0;bottom=0;right=0;pointerEvents=1;fontSize=16;" vertex="1" parent="2tVpoDA7U7rSNusbg8pE-116">
          <mxGeometry x="150" width="60" height="23" as="geometry">
            <mxRectangle width="60" height="23" as="alternateBounds" />
          </mxGeometry>
        </mxCell>
        <mxCell id="2tVpoDA7U7rSNusbg8pE-120" style="shape=partialRectangle;html=1;whiteSpace=wrap;connectable=0;strokeColor=inherit;overflow=hidden;fillColor=none;top=0;left=0;bottom=0;right=0;pointerEvents=1;fontSize=16;" vertex="1" parent="2tVpoDA7U7rSNusbg8pE-116">
          <mxGeometry x="210" width="63" height="23" as="geometry">
            <mxRectangle width="63" height="23" as="alternateBounds" />
          </mxGeometry>
        </mxCell>
        <mxCell id="2tVpoDA7U7rSNusbg8pE-121" style="shape=tableRow;horizontal=0;startSize=0;swimlaneHead=0;swimlaneBody=0;strokeColor=inherit;top=0;left=0;bottom=0;right=0;collapsible=0;dropTarget=0;fillColor=none;points=[[0,0.5],[1,0.5]];portConstraint=eastwest;fontSize=16;" vertex="1" parent="V3QT0Z4RZKV1k2BMbgVx-1">
          <mxGeometry y="1036" width="273" height="23" as="geometry" />
        </mxCell>
        <mxCell id="2tVpoDA7U7rSNusbg8pE-122" style="shape=partialRectangle;html=1;whiteSpace=wrap;connectable=0;strokeColor=inherit;overflow=hidden;fillColor=none;top=0;left=0;bottom=0;right=0;pointerEvents=1;fontSize=16;" vertex="1" parent="2tVpoDA7U7rSNusbg8pE-121">
          <mxGeometry width="90" height="23" as="geometry">
            <mxRectangle width="90" height="23" as="alternateBounds" />
          </mxGeometry>
        </mxCell>
        <mxCell id="2tVpoDA7U7rSNusbg8pE-123" style="shape=partialRectangle;html=1;whiteSpace=wrap;connectable=0;strokeColor=inherit;overflow=hidden;fillColor=none;top=0;left=0;bottom=0;right=0;pointerEvents=1;fontSize=16;" vertex="1" parent="2tVpoDA7U7rSNusbg8pE-121">
          <mxGeometry x="90" width="60" height="23" as="geometry">
            <mxRectangle width="60" height="23" as="alternateBounds" />
          </mxGeometry>
        </mxCell>
        <mxCell id="2tVpoDA7U7rSNusbg8pE-124" style="shape=partialRectangle;html=1;whiteSpace=wrap;connectable=0;strokeColor=inherit;overflow=hidden;fillColor=none;top=0;left=0;bottom=0;right=0;pointerEvents=1;fontSize=16;" vertex="1" parent="2tVpoDA7U7rSNusbg8pE-121">
          <mxGeometry x="150" width="60" height="23" as="geometry">
            <mxRectangle width="60" height="23" as="alternateBounds" />
          </mxGeometry>
        </mxCell>
        <mxCell id="2tVpoDA7U7rSNusbg8pE-125" style="shape=partialRectangle;html=1;whiteSpace=wrap;connectable=0;strokeColor=inherit;overflow=hidden;fillColor=none;top=0;left=0;bottom=0;right=0;pointerEvents=1;fontSize=16;" vertex="1" parent="2tVpoDA7U7rSNusbg8pE-121">
          <mxGeometry x="210" width="63" height="23" as="geometry">
            <mxRectangle width="63" height="23" as="alternateBounds" />
          </mxGeometry>
        </mxCell>
        <mxCell id="2tVpoDA7U7rSNusbg8pE-126" style="shape=tableRow;horizontal=0;startSize=0;swimlaneHead=0;swimlaneBody=0;strokeColor=inherit;top=0;left=0;bottom=0;right=0;collapsible=0;dropTarget=0;fillColor=none;points=[[0,0.5],[1,0.5]];portConstraint=eastwest;fontSize=16;" vertex="1" parent="V3QT0Z4RZKV1k2BMbgVx-1">
          <mxGeometry y="1059" width="273" height="23" as="geometry" />
        </mxCell>
        <mxCell id="2tVpoDA7U7rSNusbg8pE-127" style="shape=partialRectangle;html=1;whiteSpace=wrap;connectable=0;strokeColor=inherit;overflow=hidden;fillColor=none;top=0;left=0;bottom=0;right=0;pointerEvents=1;fontSize=16;" vertex="1" parent="2tVpoDA7U7rSNusbg8pE-126">
          <mxGeometry width="90" height="23" as="geometry">
            <mxRectangle width="90" height="23" as="alternateBounds" />
          </mxGeometry>
        </mxCell>
        <mxCell id="2tVpoDA7U7rSNusbg8pE-128" style="shape=partialRectangle;html=1;whiteSpace=wrap;connectable=0;strokeColor=inherit;overflow=hidden;fillColor=none;top=0;left=0;bottom=0;right=0;pointerEvents=1;fontSize=16;" vertex="1" parent="2tVpoDA7U7rSNusbg8pE-126">
          <mxGeometry x="90" width="60" height="23" as="geometry">
            <mxRectangle width="60" height="23" as="alternateBounds" />
          </mxGeometry>
        </mxCell>
        <mxCell id="2tVpoDA7U7rSNusbg8pE-129" style="shape=partialRectangle;html=1;whiteSpace=wrap;connectable=0;strokeColor=inherit;overflow=hidden;fillColor=none;top=0;left=0;bottom=0;right=0;pointerEvents=1;fontSize=16;" vertex="1" parent="2tVpoDA7U7rSNusbg8pE-126">
          <mxGeometry x="150" width="60" height="23" as="geometry">
            <mxRectangle width="60" height="23" as="alternateBounds" />
          </mxGeometry>
        </mxCell>
        <mxCell id="2tVpoDA7U7rSNusbg8pE-130" style="shape=partialRectangle;html=1;whiteSpace=wrap;connectable=0;strokeColor=inherit;overflow=hidden;fillColor=none;top=0;left=0;bottom=0;right=0;pointerEvents=1;fontSize=16;" vertex="1" parent="2tVpoDA7U7rSNusbg8pE-126">
          <mxGeometry x="210" width="63" height="23" as="geometry">
            <mxRectangle width="63" height="23" as="alternateBounds" />
          </mxGeometry>
        </mxCell>
        <mxCell id="2tVpoDA7U7rSNusbg8pE-131" style="shape=tableRow;horizontal=0;startSize=0;swimlaneHead=0;swimlaneBody=0;strokeColor=inherit;top=0;left=0;bottom=0;right=0;collapsible=0;dropTarget=0;fillColor=none;points=[[0,0.5],[1,0.5]];portConstraint=eastwest;fontSize=16;" vertex="1" parent="V3QT0Z4RZKV1k2BMbgVx-1">
          <mxGeometry y="1082" width="273" height="23" as="geometry" />
        </mxCell>
        <mxCell id="2tVpoDA7U7rSNusbg8pE-132" style="shape=partialRectangle;html=1;whiteSpace=wrap;connectable=0;strokeColor=inherit;overflow=hidden;fillColor=none;top=0;left=0;bottom=0;right=0;pointerEvents=1;fontSize=16;" vertex="1" parent="2tVpoDA7U7rSNusbg8pE-131">
          <mxGeometry width="90" height="23" as="geometry">
            <mxRectangle width="90" height="23" as="alternateBounds" />
          </mxGeometry>
        </mxCell>
        <mxCell id="2tVpoDA7U7rSNusbg8pE-133" style="shape=partialRectangle;html=1;whiteSpace=wrap;connectable=0;strokeColor=inherit;overflow=hidden;fillColor=none;top=0;left=0;bottom=0;right=0;pointerEvents=1;fontSize=16;" vertex="1" parent="2tVpoDA7U7rSNusbg8pE-131">
          <mxGeometry x="90" width="60" height="23" as="geometry">
            <mxRectangle width="60" height="23" as="alternateBounds" />
          </mxGeometry>
        </mxCell>
        <mxCell id="2tVpoDA7U7rSNusbg8pE-134" style="shape=partialRectangle;html=1;whiteSpace=wrap;connectable=0;strokeColor=inherit;overflow=hidden;fillColor=none;top=0;left=0;bottom=0;right=0;pointerEvents=1;fontSize=16;" vertex="1" parent="2tVpoDA7U7rSNusbg8pE-131">
          <mxGeometry x="150" width="60" height="23" as="geometry">
            <mxRectangle width="60" height="23" as="alternateBounds" />
          </mxGeometry>
        </mxCell>
        <mxCell id="2tVpoDA7U7rSNusbg8pE-135" style="shape=partialRectangle;html=1;whiteSpace=wrap;connectable=0;strokeColor=inherit;overflow=hidden;fillColor=none;top=0;left=0;bottom=0;right=0;pointerEvents=1;fontSize=16;" vertex="1" parent="2tVpoDA7U7rSNusbg8pE-131">
          <mxGeometry x="210" width="63" height="23" as="geometry">
            <mxRectangle width="63" height="23" as="alternateBounds" />
          </mxGeometry>
        </mxCell>
        <mxCell id="2tVpoDA7U7rSNusbg8pE-136" style="shape=tableRow;horizontal=0;startSize=0;swimlaneHead=0;swimlaneBody=0;strokeColor=inherit;top=0;left=0;bottom=0;right=0;collapsible=0;dropTarget=0;fillColor=none;points=[[0,0.5],[1,0.5]];portConstraint=eastwest;fontSize=16;" vertex="1" parent="V3QT0Z4RZKV1k2BMbgVx-1">
          <mxGeometry y="1105" width="273" height="23" as="geometry" />
        </mxCell>
        <mxCell id="2tVpoDA7U7rSNusbg8pE-137" style="shape=partialRectangle;html=1;whiteSpace=wrap;connectable=0;strokeColor=inherit;overflow=hidden;fillColor=none;top=0;left=0;bottom=0;right=0;pointerEvents=1;fontSize=16;" vertex="1" parent="2tVpoDA7U7rSNusbg8pE-136">
          <mxGeometry width="90" height="23" as="geometry">
            <mxRectangle width="90" height="23" as="alternateBounds" />
          </mxGeometry>
        </mxCell>
        <mxCell id="2tVpoDA7U7rSNusbg8pE-138" style="shape=partialRectangle;html=1;whiteSpace=wrap;connectable=0;strokeColor=inherit;overflow=hidden;fillColor=none;top=0;left=0;bottom=0;right=0;pointerEvents=1;fontSize=16;" vertex="1" parent="2tVpoDA7U7rSNusbg8pE-136">
          <mxGeometry x="90" width="60" height="23" as="geometry">
            <mxRectangle width="60" height="23" as="alternateBounds" />
          </mxGeometry>
        </mxCell>
        <mxCell id="2tVpoDA7U7rSNusbg8pE-139" style="shape=partialRectangle;html=1;whiteSpace=wrap;connectable=0;strokeColor=inherit;overflow=hidden;fillColor=none;top=0;left=0;bottom=0;right=0;pointerEvents=1;fontSize=16;" vertex="1" parent="2tVpoDA7U7rSNusbg8pE-136">
          <mxGeometry x="150" width="60" height="23" as="geometry">
            <mxRectangle width="60" height="23" as="alternateBounds" />
          </mxGeometry>
        </mxCell>
        <mxCell id="2tVpoDA7U7rSNusbg8pE-140" style="shape=partialRectangle;html=1;whiteSpace=wrap;connectable=0;strokeColor=inherit;overflow=hidden;fillColor=none;top=0;left=0;bottom=0;right=0;pointerEvents=1;fontSize=16;" vertex="1" parent="2tVpoDA7U7rSNusbg8pE-136">
          <mxGeometry x="210" width="63" height="23" as="geometry">
            <mxRectangle width="63" height="23" as="alternateBounds" />
          </mxGeometry>
        </mxCell>
        <mxCell id="2tVpoDA7U7rSNusbg8pE-141" style="shape=tableRow;horizontal=0;startSize=0;swimlaneHead=0;swimlaneBody=0;strokeColor=inherit;top=0;left=0;bottom=0;right=0;collapsible=0;dropTarget=0;fillColor=none;points=[[0,0.5],[1,0.5]];portConstraint=eastwest;fontSize=16;" vertex="1" parent="V3QT0Z4RZKV1k2BMbgVx-1">
          <mxGeometry y="1128" width="273" height="23" as="geometry" />
        </mxCell>
        <mxCell id="2tVpoDA7U7rSNusbg8pE-142" style="shape=partialRectangle;html=1;whiteSpace=wrap;connectable=0;strokeColor=inherit;overflow=hidden;fillColor=none;top=0;left=0;bottom=0;right=0;pointerEvents=1;fontSize=16;" vertex="1" parent="2tVpoDA7U7rSNusbg8pE-141">
          <mxGeometry width="90" height="23" as="geometry">
            <mxRectangle width="90" height="23" as="alternateBounds" />
          </mxGeometry>
        </mxCell>
        <mxCell id="2tVpoDA7U7rSNusbg8pE-143" style="shape=partialRectangle;html=1;whiteSpace=wrap;connectable=0;strokeColor=inherit;overflow=hidden;fillColor=none;top=0;left=0;bottom=0;right=0;pointerEvents=1;fontSize=16;" vertex="1" parent="2tVpoDA7U7rSNusbg8pE-141">
          <mxGeometry x="90" width="60" height="23" as="geometry">
            <mxRectangle width="60" height="23" as="alternateBounds" />
          </mxGeometry>
        </mxCell>
        <mxCell id="2tVpoDA7U7rSNusbg8pE-144" style="shape=partialRectangle;html=1;whiteSpace=wrap;connectable=0;strokeColor=inherit;overflow=hidden;fillColor=none;top=0;left=0;bottom=0;right=0;pointerEvents=1;fontSize=16;" vertex="1" parent="2tVpoDA7U7rSNusbg8pE-141">
          <mxGeometry x="150" width="60" height="23" as="geometry">
            <mxRectangle width="60" height="23" as="alternateBounds" />
          </mxGeometry>
        </mxCell>
        <mxCell id="2tVpoDA7U7rSNusbg8pE-145" style="shape=partialRectangle;html=1;whiteSpace=wrap;connectable=0;strokeColor=inherit;overflow=hidden;fillColor=none;top=0;left=0;bottom=0;right=0;pointerEvents=1;fontSize=16;" vertex="1" parent="2tVpoDA7U7rSNusbg8pE-141">
          <mxGeometry x="210" width="63" height="23" as="geometry">
            <mxRectangle width="63" height="23" as="alternateBounds" />
          </mxGeometry>
        </mxCell>
      </root>
    </mxGraphModel>
  </diagram>
</mxfile>
